<svg id="Layer_1" data-name="Layer 1" xmlns="http://www.w3.org/2000/svg" viewBox="0 0 645 359"><defs><style>.cls-1,.cls-4{fill:#eaeaea;}.cls-2,.cls-3{fill:#fff;}.cls-3{font-size:64.27px;}.cls-3,.cls-4{font-family:ModernSans, Modern Sans;}.cls-4{font-size:28.53px;}.cls-5{font-family:MyriadPro-Regular, Myriad Pro;}</style></defs><title>cwlodgingtransparency</title><g id="layer1"><path id="path1996" class="cls-1" d="M289.39,245.56s.29-1.56-.07-2a6,6,0,0,1-1-2.91c.14-.64-2.06-2.2-2.06-2.2s-4.26-1.85-6.25-1.92-5.47-2.2-5.76-2.84-2.34-3.83-1.91-5.54-1.28-2.91-1.28-2.91-1.49-7.46-1.35-8.53a10.4,10.4,0,0,0-.43-3.05s.64-3.27,1.21-4,2-2.2,2-2.2l1-2.27s-.21-3.84-2.27-4.12-2.7-4.83-2.7-4.83l.14-3.06-1-1.49.07-3.69s-.92-4.69-.43-5.19.29-1.7.29-1.7-1.32-6.44-1.53-6.79.35-1.77.35-1.77c0-1.4-1.12-1-2-1,0,0-5.47-5.54-6-5.68s-4.34-1.07-4.34-1.07L251,161.53s-.15-2.27-1.92-1.49-3.06-2.63-3.06-2.63-2.27-3.55-2.2-3.9a8,8,0,0,0-.92-2.06l.07-1.71-1.28-.78s-.07-2.2-1.63-1.56-3.62-2.2-3.62-2.2l-4-1.42s-3.41-3.2-3.63-4.83-5.18-2.35-5.18-2.35l-3.2-.42s-.21-1.42-1.35-1.42-1.56-1.85-1.56-1.85l-1.56-1.07L212.82,128l-1.63-.29a1.91,1.91,0,0,1-.43-2.84A6,6,0,0,0,212,122l.85-.42a2.86,2.86,0,0,1-.78-1.92,12.45,12.45,0,0,1,1.35-2.91l-.5-1.21-.63.28.21-3.41s-1.28-1.56-1.14-2.41,1.78-1.71,1.78-2.2v-2.42s-1.07-1.7-.64-2.7,0-4.4,0-4.4l3.12-2.49s-1.42-1-.14-2,2.63-1.84,2.42-2.55a6.59,6.59,0,0,0-1.14-1.78c-.21-.28-1.21-.64-1.07-1.56a5.07,5.07,0,0,0-.56-2.35l-1.35-1.28a.93.93,0,0,0-1.42-.42c-.93.64-2.28-1.14-2.28-1.14s-1-2.7-.56-3.76.85-1.49.71-1.78a1.61,1.61,0,0,1-.08-1.63,9,9,0,0,1,2.21-1.42s1.13-2.56,1.7-2.35-.57-1.56-.57-1.56,1.35-.78,1.49-1.21.29-1.7.86-1.7,2.06-1.71,2.63-1.49.21-1.07.21-1.07l3.55-1.35s.07-1.21,1.14-.92a1.92,1.92,0,0,0,1.77-.43s1.56-2.2,2.27-2.13a3,3,0,0,1,1.35.57l1.64-.14s-.85-2.28.14-2.49.71-.5.71-.5l1.21-30.11.71-.36.5,1.07,2.62.28s.43-1,1.07-1,1.77-1.14,1.42-1.57,1.78-2.69,2.2-2.2,4,4.05,4.55,4.05,2-.85,2.41-.71,1.78-.64,2.56-.42,2.41-1.07,3.12-.79,2.35-1.06,3.34-.92,1.07-.92,1.07-.92a7.28,7.28,0,0,1,2.06-.07c1.56.07,3.41-1.21,4.12-1s1.06-1.06,1.06-1.06l.57.78,1-.14s.49-1.5,1.49-1.57,2.06-.78,2.63-.78,1.7-2.56,2.13-2.27.21,1.42.21,1.42a5.51,5.51,0,0,1,1.63-.36c.71,0,2.28.22,2.28.22l-.29-1.64s.57-.64.93-.28a1.37,1.37,0,0,0,1,.28l.43-1.28s2-.42,2.06-1.13.78-.21.78-.21l.42.58s-.24-1.05.36-.87,2-1.14,2-1.14l1.28-.42s-.22,1.42.42,1.49,1.35.21,1.35.21a2.49,2.49,0,0,1,.5,1.35c-.07.57.78.78.78.78a.68.68,0,0,0-.43.64c0,.5-.42,1.35-.49,2.06s-1.07,1.07-1.42,1.07.71.78.21,1.49-1.63.78-1.63,1.14a1.6,1.6,0,0,1-.78,1.13c-.5.36,1.34,2.77.71,3.34s-2.06,1.42-2,1.78-.57,2.2-.93,2.13-.42,1.63-.42,1.63a6,6,0,0,0,2-.5c.49-.35,1.49-1.49,2.69-1.42s2.28-1.77,2.92-1.49a3,3,0,0,0,1.49.14L289.54,28a.83.83,0,0,1,1.35.07c.63.85,1.13,2,1.56,2.41s.28.64.92,1.14A18,18,0,0,0,296.28,33l1.78-.07L300,34l1.28.21s-.07,1.49.92,1.28,1.14-.71,1.78-.57,1.49,1.56,1.49,1.56.92-.35.92.5,1.85.07,2.06,1.13,1.14,1.5.78,2.06,1.28,2.49,1.28,2.49,1.14,1.21.92,1.71a3.7,3.7,0,0,0,.07,1.63l37.93,10.58,8,4.41,1.07-.36.92.85,1.14.07.49.29.36.43,1.7-.15A14.48,14.48,0,0,0,366,63.23a4.56,4.56,0,0,0,2.35-.85c.07-.29,2.06,0,2.06,0s1.63.28,1.49.85,1.49-.07,1.92.78,2.06.57,2.06.57.85-.85,1.42-.29a14.82,14.82,0,0,0,3.19,1.5,1.47,1.47,0,0,1,1.28.56c.43.64,1.07-.42,1.07-.42s1.56-.29,1.85.28,1.2.14,1.27.93a7,7,0,0,1,0,1.42L387,70.12s-1,1.28-1.56,1.28-.93,1.7-.15,1.77a6.6,6.6,0,0,1,2.21,1.14,4,4,0,0,0,1.63-.71c.36-.43,1.42.28,1.21,1s1.35,1.92,2.13,1.35,2.06-.28,2.13.29-.43.49.28,1.2,2.56,2.85,2.56,2.85-.43.56-.92.28-.07,2.13-.07,2.13l1.2.71.36,2.2s-.5.93-.92.43-1.21-.07-.79.85a2.68,2.68,0,0,0,.93,1.21,3.18,3.18,0,0,0,0,1.7c.28.57-.36,1.78-1.28,2.28s-.64,2.34-.64,2.34l-.64.92s.43,1,.71,1.5,1.85-1,2.49-.29a2.12,2.12,0,0,0,1.7.57,1.45,1.45,0,0,0,.64-.78.82.82,0,0,1,1.07-.43c.28.07.49-1,1-.35s.21.57.5.92a1.88,1.88,0,0,1-.21,2.06c-.57.5-.57,1.49-.93,1.92s-.85.28-.78,1.35.43.78-.21,1.28-.29,1.7-.29,1.7-.78,0-.64.64,1.35,1.28,1.5,1.92,2.2,2.56,2.2,2.56l2-.15s.56.78-.57,1.64-.71,4.33-.71,4.33-2.35,1.42-3.77,1.35-4.26,1.92-4.12,2.49.86,1.63.29,2.06a3.14,3.14,0,0,0-.93,2.13c.08.42-1,.28-1,.28s-2.13,5-2.77,5.11-1.07,5.19-1.49,5.26,1.21,1.63,1.21,1.63.07,1.35-.43.86-1.28-.36-1.21.07-1.06-.14-.78.71.57,2.34.57,2.34a2.39,2.39,0,0,1,2-.21c.92.43,2.2-1.56,2.41-2.91s3.48-2.63,3.48-2.63,1.07.35,1.35.21,2.13-4.19,2.06-5,2.63-2.7,2.63-3.41,1.92-3,2.49-2.63,1-.57,1-.57-.21.93.21,1.07.15-.29.64-1,1.07-.92,1.78-.42,1.63-1.85,1.63-1.85a4.29,4.29,0,0,1,.29,1.63c0,1,1.28,1.85,1.28,1.85a3.1,3.1,0,0,1,1.49.64c.49.5,1.13.14,1.06,1s-1.56,7-3.12,8.94-1.85,5.69-1.85,5.69a6.08,6.08,0,0,0-.78,2.48c0,1.14-.92,2.77-.92,3.77s-1.28,3.55-1.07,4.61a27.67,27.67,0,0,0,1.35,4.41c.28.42-.57,3.48-1.14,3.91s-4.05,2.48-4.12,4a6.91,6.91,0,0,1-.92,3.2,3.16,3.16,0,0,0-.21,1.85c.07.56-.43,1.06-.64,1.63a3.23,3.23,0,0,0-.43,1.7c0,1-.42,5-.14,5.9s1.28,2,.92,2.84a22.67,22.67,0,0,0-.49,4.12,9.23,9.23,0,0,0-.93,2.13c-.14.78-1.84,2.63-1.92,3.06s-.14,6.46-1.27,7.81S396,200,396,201.31s-.85,3.55-1.28,3.77.57,5,.57,5a1.05,1.05,0,0,1,.36,1.42c-.43,1,.28,3.48.49,3.83s.14,1.71-.28,1.85-.14,2.49.21,2.56,1.42,1.35,1.21,1.77.57,1.35.57,1.35.14,2.63-.36,2.92.57,2.77,1.49,3.76,1.57,1.85.93,2.77a.93.93,0,0,0,.21,1.42s-.43,3-1.07,3.41.43,9.8.43,9.8l-.35.07C362.56,247.24,326,246.17,289.39,245.56Z"/><path id="path2886" class="cls-1" d="M415.91,125l-3-2.67s.7-2.06,0-2.66,2.06-5.27,2.06-5.27.71-2.56,1.63-2.83,1.2-4.19,1.2-4.19,1.09-1.41.82-1.74,1.63.6,1.52,1.09.27.81.49.6-.65-1.85.27-2.29a9.83,9.83,0,0,0,1.74-1.09,13.71,13.71,0,0,1,.22-2.44c.16-.28.81,0,1-.22s.38-2.88.76-2.56S426,100,426,100l2-.32a3.86,3.86,0,0,0-.17,1.79,2.85,2.85,0,0,1,0,1.42s.06,1.3-.27,1.19-1-1.41-1-1.41-.81-1.36-1-1.09a1.42,1.42,0,0,0,.22,1.36c.33.33.16,3.48-.11,3.48s.38,1.25.38,1.25-.81-1.3-1-1.14.11,1.74.32,2,0,2.23-.27,1.85-1-1-1-.65a8.06,8.06,0,0,0,.33,1.63s-.82.49-1,0-.65,1.47-.65,1.47-2.12,1.69-1.85,2.83a12.38,12.38,0,0,1,.27,2.45s-.32.43-.7.87-1.09.65-.93,1.09.87,1.19.22,1.52-1.09-.17-1.25.65-.71,1.14-1.09.82-.6-.11-.43.32S416.34,125.37,415.91,125Z"/><path id="path3773" class="cls-1" d="M414.33,104.11s-.71.76-1.09.76.71,1.79.71,1.79,1.3.17,1.36-.32-.44-.28-.49-.87A2.6,2.6,0,0,0,414.33,104.11Z"/><path id="path4662" class="cls-1" d="M428.69,95.73s0-.92-.28-1.19.55-.49.55-.49l.16-1.53s.33,1.36.82,1.2,1.79-.65,2.06.22.66.76.66.76-.77.27-.77.76a1.37,1.37,0,0,0,.28.82s-.93-.38-.82.27a1,1,0,0,0,.49.81,7.41,7.41,0,0,0-1.52-.27c-.33.06-.6-1.36-.93-.87a4.36,4.36,0,0,1-.7.82S428.31,96,428.69,95.73Z"/><path id="path5549" class="cls-1" d="M433.85,92.74s-1.74-.27-.92.65,1.3.38,1.3.38Z"/><path id="path6436" class="cls-1" d="M281,12.47s0-.92.6-.87,1-.87,1.09-.49-.11,1.2,0,1.42-1-.33-1.2-.06A.37.37,0,0,1,281,12.47Z"/><path id="path6438" class="cls-1" d="M289.85,12.75s-.6,1.3-.93,1.3.77,1,1.26,1.2,1.74.21,1.68-.38-.33-1.31-.71-1.2S290.07,12.58,289.85,12.75Z"/><path id="path6440" class="cls-1" d="M289.25,10.84l.6-.38s-.87-2-.93-1.41A16.87,16.87,0,0,0,289.25,10.84Z"/><path id="path6442" class="cls-1" d="M291.1,11.22c0-.38-.05-1.19.49-.87s.65.55.27.87-.54.76-.71.49S290.94,11.11,291.1,11.22Z"/><path id="path6444" class="cls-1" d="M290.72,18l-.27-.82s-1.58,1.47-1,2S290.77,18.07,290.72,18Z"/><path id="path6446" class="cls-1" d="M292.08,19.27c.65-.11,1.63-.54,1.63-1s.33-.54.65-.27,1.85.54,1.36.87-.7.65-1,.44-1.3.81-1.3.81a1.72,1.72,0,0,1-.93.11C291.86,20.2,291.53,19.54,292.08,19.27Z"/><path id="path6448" class="cls-1" d="M291.48,20.25c.82,1.09,1,1,1.47,1s.49.55.05.93-.76.49-1.85.54-1.25.16-1.41.71-1.09,1.52-1.25.81-.27-1.36.05-1.68.71-.55.17-.55-.71-.38.27-.59a2.63,2.63,0,0,0,1.63-1C290.88,20.14,291.26,20,291.48,20.25Z"/><path id="path6450" class="cls-1" d="M298.5,17.53a1,1,0,0,1,.21.71s1.74-1.36,1.74-1.74a6.68,6.68,0,0,0-.05-.76,9.82,9.82,0,0,0-.82.81,6.53,6.53,0,0,1-1.36,1Z"/><path id="path6452" class="cls-1" d="M299.91,11s.49-1.79.22-2.28,1.3-2,1.3-2l.44.16s.54-.6.65-.22a1.48,1.48,0,0,1-.27,1.26c-.27.27-.11,1.14.11,1.46S300.18,11.28,299.91,11Z"/><path id="path7339" class="cls-1" d="M293,15.14s.49-1.63,1-1.52,1.14-.71,1.58-.49.54-.55.92-.28,1.31-.54,1.36-.1-.21,1.52-.59,1.68-.39,1.58-.66,1-1-.65-1.14-.22-.54,0-1.41.11-.49.87-.76.71S292.46,15.25,293,15.14Z"/><path id="path7341" class="cls-1" d="M293.28,11.77s-1,.59-.87,1,1.14.11,1.25-.11S293.22,11.6,293.28,11.77Z"/><path id="path7343" class="cls-1" d="M294.53,10.41s-.77.05-.55.49a1.15,1.15,0,0,0,.71.54S295.23,10.73,294.53,10.41Z"/><path id="path7345" class="cls-1" d="M296.05,9.26c-.38.39-.49.06-.16.66s.48.65.32,1.14.71.54.82.22a1.21,1.21,0,0,0-.06-1.15C296.7,9.75,296.43,8.94,296.05,9.26Z"/><path id="path7347" class="cls-1" d="M292.24,8.07c-.71.76-1.3,1.41-.76,1.63a.84.84,0,0,0,1.09-.6A1.11,1.11,0,0,0,292.24,8.07Z"/></g><path class="cls-2" d="M359.89,110.28h9.5s2-.34,2-3.75-.83-3.42-2-3.42h-4.33a47.11,47.11,0,0,0-42.92-26c-31.58,0-49.92,27.17-49.92,48.17s14.17,51.16,49.92,51.16,42.92-26.16,42.92-26.16h4.16a2.78,2.78,0,0,0,2.17-3c0-2.67-.5-4.17-2.33-4.17h-9s-10.64,25.17-37.92,25.17-41.75-21.34-41.75-41.5,16.8-41.34,41.75-41.34S359.89,110.28,359.89,110.28Z"/><path class="cls-2" d="M352.22,106.53h-7.75l-8.08,38.25h-1.33l-8.17-12.34s19-22.33-5-25.91c0,0-24.33,1.91-5.5,25.91l-7.15,12.34h-1.18l-8.67-38.25h-8s-2.33.08-2.33,2.91.66,4.84,4,4.84l9,41.33h8.33l11-16.5h1l10.5,16.5h9.33l8.84-41.83s4.16-.17,4.16-3.67S354.22,106.53,352.22,106.53Zm-30.41,19s-8.34-11.25.33-11.25S321.81,125.53,321.81,125.53Z"/><text class="cls-3" transform="translate(-0.68 312.78)">CENTRAL</text><text class="cls-3" transform="translate(282.8 312.78) scale(0.21 1)"> </text><text class="cls-3" transform="translate(290.9 312.78)">WISCONSIN</text><text class="cls-4" transform="translate(82.44 354)">HOTEL <tspan class="cls-5" x="108.31" y="0">&amp;</tspan><tspan x="125.57" y="0" xml:space="preserve"> LODGING ASSOCIATION</tspan></text></svg>