<svg xmlns="http://www.w3.org/2000/svg" viewBox="0 0 781.975 287.197"><defs><style>.a,.b{fill:#fff;}.a{opacity:0.5;}</style></defs><title>ExpoLogoTransparency.svg</title><path class="a" d="M357.7,29.132c14.8-7.7,29.5-15.5,44.4-22.9,11.5-5.7,24-6.8,36.8-6,11.3.7,21.5,4.6,31.4,9.8,28.7,15.2,57.5,30.1,86.3,45.1,3.2,1.7,6.4,3.5,10.2,5.6-4.9.8-9.1,1.7-13.4,2.1-16.2,1.5-32.5,3.3-48.8,4-17.3.8-34.6.8-51.8.8-10.2-.1-20.4-1.1-30.6-1.6-.3-.3-.5-.7-.9-.9-5.4-3.1-10.9-6.2-16.4-9.3-15.7-8.8-31.5-17.6-47.2-26.4Z"/><path class="a" d="M170.5,79.732c6.4-1.1,12.8-2.2,19.2-3.2,9.8-1.4,19.6-2.8,29.5-4,7.3-.9,14.5-1.6,21.8-2.3,10.1-.9,20.3-1.7,30.5-2.5q5.1-.45,10.2-.6c21-.2,41.9-.7,62.9-.4,12,.2,24,1.4,36,2.5,8.8.9,17.6,2.5,26.4,3.7,4.8.6,9.7,1.1,14.5,1.4,13.6.9,27.1,2,40.7,2.5,11.7.4,23.4-.1,35.1-.3,3.9-.1,7.8-.2,11.8-.6,14-1.2,28.1-2,42.1-3.7,17-2,33.9-4.8,50.9-7.2a3.125,3.125,0,0,1,2,.4c-3.5,1.3-6.9,2.7-10.4,3.8-14,4.2-27.9,8.8-42.1,12.4-12.5,3.2-25.3,5.6-38.1,7.8a207.052,207.052,0,0,1-25.9,2.8c-18,.7-36,1.4-53.9.9-14.5-.4-28.9-2.4-43.4-3.9-11-1.1-21.9-2.7-32.9-3.7-10.9-1-21.9-1.6-32.9-2.1-9.6-.5-19.2-.9-28.8-1.1q-29.85-.6-59.7-1.1c-14.6-.2-29.2-.4-43.7-.5-7.1-.1-14.3,0-21.5,0A2.236,2.236,0,0,1,170.5,79.732Z"/><path class="a" d="M357.7,29.132v.3c-.9.4-1.7.8-2.6,1.2l-46.8,23.1c-2.4,1.2-4.7,2.4-7.1,3.6-4.8.2-9.6.4-14.4.7-20.4,1.5-40.9,3.1-61.3,4.7a62.177,62.177,0,0,1-8.7.3c.7-.4,1.3-.9,2.1-1.3,25.4-13.6,50.5-27.6,76.2-40.6,16-8.1,32.7-7.5,48.9.5C348.6,23.932,353.1,26.632,357.7,29.132Z"/><path class="b" d="M301.2,57.332c2.4-1.2,4.7-2.4,7.1-3.6l46.8-23.1c.9-.4,1.7-.8,2.6-1.2,15.7,8.8,31.5,17.6,47.2,26.4,5.5,3.1,10.9,6.2,16.4,9.3.4.2.6.6.9.9-8-.9-16-1.4-23.9-2.7C366.1,57.732,333.7,56.332,301.2,57.332Z"/><path class="b" d="M713.4,179.632c-7-1.4-13.5.2-19.7,3.4-2,1.1-3.5,1.6-4.8-1.1-1.1-2.3-4.5-3.1-7.3-2.1-2.4.8-3.4,2.8-3.4,5.3v68.7c0,3.6,1.4,5.5,4.3,6.3,4.5,1.3,8.6-1.4,8.4-6.3-.3-7.1-.1-14.2-.1-22a18.824,18.824,0,0,0,3.9,1.2,31.249,31.249,0,0,0,16.2,3.2c8.3-.4,14.3-6.2,14.5-14.5.2-9.3.2-18.7,0-28C725.2,186.332,720.6,181.132,713.4,179.632Zm-.8,39.2c0,3.9-1.6,5.5-5.4,5.5h-11c-3.8,0-5.4-1.7-5.4-5.5v-11c0-3.7-.1-7.3,0-11s1.7-5.3,5.3-5.4c3.8-.1,7.5-.1,11.3,0,3.6.1,5.2,1.7,5.2,5.4Zm-93.3,11.5c0,3.7-2.3,5.9-6.2,5.9H580.3c-3.8,0-6-2.2-6-6.1v-44.5c0-3.9,2-5.9,6-5.9h30.9c4.2,0,6.3,1.9,6.4,5.5.1,4-2,6.3-6.2,6.4-7.1.1-14.1,0-21.2,0h-2.8v10.4h9.7c4.1,0,8.2-.1,12.3,0,4.5.2,6.9,3.3,5.9,7.6-.6,2.7-2.3,4.3-5.1,4.3-6.9.1-13.8.1-20.7.1h-2.1v10.3H613C617.1,224.332,619.3,226.532,619.3,230.332Zm162.6-36.7a14.452,14.452,0,0,0-13.7-13.9c-6.5-.1-12.9-.2-19.4,0a14.076,14.076,0,0,0-13.6,13.9c-.1,4.8,0,9.5,0,14.2v14.3c.1,6.9,5,13.1,11.8,13.6a135.885,135.885,0,0,0,23,0c6.9-.6,11.8-6.8,11.9-13.8C782,212.532,782,203.032,781.9,193.632Zm-17.3,30.7H752.5c-3.3,0-4.6-1.3-4.6-4.6v-23.6c0-3.1,1.3-4.5,4.4-4.6q6.15-.15,12.3,0c3.3.1,4.7,1.6,4.7,5v11.5c0,3.8,0,7.7.1,11.5C769.4,222.932,768,224.332,764.6,224.332Zm-94.2,1.5c2.9,3.6,2.5,6.3-1.3,9.4-2.6,2.2-5.9,1.7-8.5-1.3-4.6-5.5-9.2-11-14-16.8-2.6,3-4.9,5.9-7.3,8.7-2.3,2.7-4.5,5.6-6.9,8.2-2.6,3-5.8,3.3-8.5.9-3.6-3.1-3.9-5.8-1-9.2,5.1-6.1,10.2-12.1,15.6-18.4-3.2-3.7-6.3-7.5-9.4-11.2-1.8-2.1-3.6-4.2-5.4-6.4-2.5-3.1-2-6,1.3-8.8a5.48,5.48,0,0,1,8.3.7c4,4.6,7.8,9.4,11.7,14.1a22.053,22.053,0,0,0,1.6,1.7c3.4-4,6.6-7.8,9.8-11.7,1.2-1.5,2.4-3,3.7-4.4a5.593,5.593,0,0,1,8-.4c3.3,2.8,4,5.7,1.6,8.6-4.4,5.3-8.9,10.5-13.3,15.8-.5.6-1,1.2-1.6,2,4.6,5.4,9.1,10.7,13.6,16.1C669.1,224.232,669.8,225.032,670.4,225.832Z"/><path class="b" d="M79.5,179.832c-6-.1-12.1-.1-18.1,0a14.447,14.447,0,0,0-14.5,14.5c-.1,9-.1,18.1,0,27.2.1,8.5,6.5,14.7,15.1,14.8H78.5c9-.1,15.3-6.2,15.4-15.3v-13.1c0-4.6.1-9.2,0-13.8A14.447,14.447,0,0,0,79.5,179.832Zm1.5,40.3c0,2.8-1.3,4.2-4.2,4.2-4.3.1-8.5.1-12.8,0-2.9-.1-4.2-1.3-4.2-4.2v-12.6c0-3.8-.1-7.6,0-11.4,0-3.3,1.1-4.4,4.4-4.4q6.3-.15,12.6,0c3,0,4.2,1.2,4.2,4.1Zm372.8-26.5a14.041,14.041,0,0,0-14-14q-9.15-.15-18.3,0a14.323,14.323,0,0,0-14.4,14.6v27c0,8.6,6.3,14.9,14.9,15,5.6.1,11.3.1,17,0,8.6-.1,14.7-6.2,14.8-14.7.1-4.5,0-9.1,0-13.6Zm-16.9,30.7c-4.2.1-8.5.1-12.8,0-2.8,0-4.3-1.4-4.3-4.2-.1-8-.1-16.1,0-24.1,0-2.9,1.4-4.4,4.3-4.5,4.2-.1,8.5-.1,12.8,0,2.9,0,4.2,1.5,4.2,4.5v11.8c0,4,0,8.1.1,12.1C441.2,222.832,439.8,224.332,436.9,224.332Zm73,6.1c0,3.7-2.6,5.9-6.6,5.9-3.8,0-6.4-2.3-6-6,.7-6.1-1.4-10.5-5.9-14.6-5.2-4.6-9.6-9.9-14.9-15.6-.1,1.6-.2,2.5-.2,3.3v25.7c0,4.8-2,7.2-6.2,7.1-4.3,0-6.4-2.3-6.4-7.1v-42.7c0-2.8.4-5.5,3.4-6.4s6-.9,8.5,1.8c5.1,5.5,10.3,10.9,15.5,16.4,1.9,2,3.7,3.9,5.9,6.2.1-1.1.2-1.7.2-2.3v-16.8c0-3.8,2.1-5.7,6-5.7,4.1,0,6.7,2,6.7,5.7C510,200.332,510,215.332,509.9,230.432Zm-252.2-.5c.1,4-1.8,6.2-5.6,6.4-1.6.1-3.1,0-4.7,0H219.9c-5,0-6.8-1.9-6.8-6.8v-43.5c0-4.6,1.8-6.3,6.3-6.3,10.2,0,20.4.1,30.7,0,5.1-.1,7.1,3.6,5.8,8.4-.7,2.4-2.7,3.4-5.3,3.4-7.3,0-14.7.1-22-.1-2.4,0-3.1.7-2.9,3a33.667,33.667,0,0,1,0,5.5c-.1,1.9.6,2.4,2.4,2.4,6.8-.1,13.6,0,20.4,0,2.3,0,4.2.9,5,3.1.9,2.4,1.2,5-.9,6.8a8.042,8.042,0,0,1-4.7,1.8c-6.5.2-13.1.1-19.6,0-2,0-2.9.5-2.7,2.6.2,2.4,0,4.8,0,7.7h26.3C255.7,224.332,257.6,226.332,257.7,229.932Zm-108-44v44.5c-.1,3.6-2.5,5.9-6.3,5.9-4,0-6.8-2.2-6.3-6,1-6.6-1.9-11-6.4-15.2-4.2-3.9-8-8.3-11.9-12.5-.6-.6-1.3-1.1-2.3-2.2v29.2c0,5.1-3.8,7.8-8.7,6.3-2.4-.7-3.9-2.3-3.9-4.9v-46.4a4.387,4.387,0,0,1,3.2-4.6c3-.9,6.1-.8,8.5,1.8,3,3.2,6.1,6.5,9.1,9.7,3.9,4.2,7.9,8.3,12.3,13v-3.3c0-5,.1-10,0-14.9-.2-6.3,4.2-7.4,9-6.4C148.4,180.432,149.7,182.732,149.7,185.932Zm159.9-1.1v45.8c0,3.3-2.4,5.4-6,5.5-3.7.1-6.3-1.9-6.6-5.3a11.3,11.3,0,0,1,0-2.6c.6-4.4-.7-7.7-4-10.9-5.5-5.3-10.6-11.1-15.9-16.6a1.329,1.329,0,0,1-.7.3v28.2c0,4.7-2.1,7.1-6.4,7.1-4.2,0-6.2-2.3-6.2-6.9v-42.7c0-2.9.2-5.5,3.3-6.7a8.18,8.18,0,0,1,8.6,2.1c6.3,6.8,12.7,13.5,19,20.2.6.6,1.2,1.2,2.2,2.1,0-6.4.1-12.3,0-18.2-.1-6,4.2-7.5,9.1-6.3A4.768,4.768,0,0,1,309.6,184.832Zm-103.3,3.5c-2,5.3-4.1,10.6-6.1,15.9-3.2,8.4-6.5,16.8-9.7,25.1-1.9,5-4.6,7-9.3,7-4.4,0-7.2-2.1-9-7-5.2-13.4-10.3-26.9-15.5-40.3-2.6-6.7,1.2-8.7,6-9.8,2.6-.6,4.6,1,5.7,4.2,3.2,8.8,6.4,17.5,9.6,26.3,1,2.9,2,5.8,3.3,9.2,3.5-9.6,6.9-18.7,10.2-27.8.9-2.5,1.8-5.1,2.8-7.6,1.5-3.9,4-5.2,7.5-3.8C206.6,181.532,207.9,183.932,206.3,188.332Zm-164.9,41.8c0,4.1-2.1,6.1-6.4,6.2-6.7,0-13.5.1-20.2,0a14.626,14.626,0,0,1-14.8-15c.1-4.6.1-9.2.1-13.7v-13.4a14.425,14.425,0,0,1,14.4-14.5c6.6-.1,13.3-.1,19.9,0,3.7,0,5.9,2.3,5.9,5.9,0,3.7-2.1,5.8-5.9,5.8-5.8.1-11.5.1-17.3.3-3.1.1-4.3,1.4-4.4,4.4-.1,7.9-.1,15.9,0,23.9,0,3,1.6,4.3,5,4.3H35C39.3,224.332,41.4,226.232,41.4,230.132Zm320.8-45a5.6,5.6,0,0,1-4.8,6.4,19.4,19.4,0,0,1-3.4.2h-8.4a4.549,4.549,0,0,0-1.1.3v37.6c0,4.5-2.3,6.8-6.5,6.8-4.1,0-6.4-2.3-6.4-6.6v-38.2c-4.1,0-7.7.1-11.4,0-4.2-.1-6.4-2.3-6.4-6,0-3.5,2.2-5.9,5.6-5.9h37.2C359.9,179.732,361.9,181.832,362.2,185.132Zm35.4,44c.3,3.8-1,6.1-4.1,6.9a11.019,11.019,0,0,1-1.8.2c-6.6,0-13.1.1-19.7,0-5.7-.1-7-4.3-5.6-8.8.6-2.1,2.5-3.1,4.7-3.2h4.4v-8.4c0-7.3-.1-14.5,0-21.8,0-2.2-.6-2.8-2.8-2.8-4.9.1-7.2-2.9-6.1-7.7a4.712,4.712,0,0,1,4.6-4q10.5-.15,21,0c3,0,4.8,2.4,4.9,5.7,0,3.6-1.7,5.7-4.8,6a25.9,25.9,0,0,1-4.1.4v32.7c1.4,0,2.8-.1,4.2,0C395.4,224.532,397.4,226.332,397.6,229.132Z"/><path class="a" d="M548.4,214.632v11.8c0,4.6-2.1,6.7-6.4,6.7s-6.4-2.2-6.4-6.8v-12H523.7c-4.3,0-6.4-2.1-6.4-6.2.1-3.9,2.2-5.8,6.4-5.8h11c.2,0,.3-.1.9-.2v-11.8c0-4.8,2.2-6.9,6.9-6.8,3.6.1,5.8,2.2,5.9,5.9.1,4.2,0,8.4,0,12.9h12.1c4.2,0,6.4,2,6.4,5.8,0,4.1-2.1,6.2-6.4,6.2H549.2C549.1,214.432,549,214.432,548.4,214.632Z"/><path class="b" d="M453.2,284.732c0,.8-1.1,1.6-1.9,2.3-.3.3-1,.1-1.5.1H430.9c-3,0-3.6-.6-3.6-3.5v-27c0-2.5,1-3.4,3.5-3.4,6.1.1,12.2,0,18.3,0,1.7,0,3.2.2,3.3,2.4.1,2.3-1.5,2.5-3.1,2.5-5.6.2-10.9.1-16.5.1v9.6h9.6c1.8,0,3.7.1,5.5,0,1.7-.1,3,.5,3.1,2.4.1,2-1.2,2.4-2.9,2.4-4.9,0-9.8,0-14.7.1-.1,0-.1.1-.4.2v9.2h15.7c1,0,2.1-.2,2.8.2A3.635,3.635,0,0,1,453.2,284.732Zm-102.4-2.6H336.1c-.9,0-1.8-.1-2.9-.2,0-2.5.2-4.6,0-6.8s.7-2.7,2.7-2.6c4.4.1,8.7,0,13.1,0,1.6,0,2.5-.5,2.6-2.2,0-1.8-.9-2.5-2.6-2.5H333.3v-9.6c5.6,0,11,0,16.4-.1,1.7,0,3.2-.3,3.2-2.5s-1.5-2.5-3.2-2.5c-6.2,0-12.4.1-18.6,0-2.4,0-3.3.9-3.3,3.3q.15,13.65,0,27.3c0,2.4.9,3.4,3.2,3.4h19.7c1.7,0,3.3-.3,3.3-2.5S352.5,282.132,350.8,282.132Zm134.6,4.6c-1.9,1.1-3,.1-3.7-1.5-1.8-3.6-3.6-7.2-5.3-10.8a2.731,2.731,0,0,0-3-1.9c-2.6.2-5.2.1-8.2.1,0,4.1-.1,7.7,0,11.4,0,1.9-.7,3.1-2.7,3-1.8,0-2.6-1.1-2.6-2.9,0-9.4,0-18.8.1-28.3a3.28,3.28,0,0,1,1.4-2.4,3.209,3.209,0,0,1,2.8.9c1.3,2.6,2.8,1.7,4.8,1,2.7-1,5.6-2.1,8.4-2.2,4.6-.3,7.4,2.4,7.9,7,.4,4.5.6,9.1-4.7,11.7,1.9,3.8,3.7,7.4,5.5,11.1C486.8,284.332,487.2,285.732,485.4,286.732Zm-5.4-23.5c.1-3.3-1-4.9-3.9-5.1a51.434,51.434,0,0,0-6.8,0c-2.3.2-3.8,1.4-4,3.8a59.953,59.953,0,0,0,0,6c3.8,0,7.2.1,10.6,0C478.6,267.832,480,266.132,480,263.232Zm-95.3-9.9c-2.3,0-2.4,1.7-2.4,3.5v15c-2.2-2.3-3.9-4.1-5.7-5.7-3.5-3.7-6.9-7.6-10.6-11.2-.8-.9-2.6-1.2-3.9-1.1-.6,0-1.3,1.9-1.3,2.9-.1,9,0,18.1-.1,27.2,0,1.9.5,3.3,2.7,3.2,2,0,2.6-1.4,2.6-3.2v-22.3c4.6,4.9,8.5,9.3,12.8,13.4,2.6,2.5,4.1,5.1,3.5,8.7-.3,1.9.3,3.4,2.5,3.4,2.3,0,2.7-1.6,2.7-3.6v-26.7C387.6,254.832,387,253.332,384.7,253.332Zm-66.6,28.8c-3.5,0-7.1.1-10.7,0-3.1,0-4.4-1.2-4.4-4.2-.1-5.1-.1-10.1,0-15.2,0-3.2,1.3-4.3,4.5-4.4h10.2c1.6,0,2.9-.6,2.8-2.6-.1-1.9-1.2-2.4-2.8-2.4-4,0-8-.2-12,0-5,.2-8.1,3.7-8.2,8.7v16.5c.1,5.2,3.4,8.5,8.5,8.6,4,.1,8,0,12,0,1.8,0,3.5-.2,3.4-2.6C321.4,282.332,319.7,282.132,318.1,282.132Zm99.9-29H396.8c-1.7,0-3.4.1-3.4,2.5,0,2.5,1.8,2.5,3.5,2.5h8v26c-.1,1.8.6,2.9,2.5,2.9,1.8,0,2.7-1,2.7-2.8v-26c2.9,0,5.4,0,8-.1,1.8,0,3.5-.2,3.5-2.5C421.5,253.332,419.8,253.132,418,253.132Z"/><path class="b" d="M404.4,129.532c-2.1,9.3-4.3,18.7-6.5,28-.5,2.1-2,2.6-4,2.5-2.1,0-4-.1-4.7-2.6-1.7-5.5-3.5-11-5.4-17l-5.3,15.9c-.7,2-1.3,3.7-3.9,3.8-3.9,0-4.4-.3-5.3-4.2-2.1-8.6-4.1-17.1-6.1-25.7-.4-1.8-.5-3.3,1.8-3.8,2.4-.5,3,.9,3.4,2.9,1.8,8.2,3.6,16.3,5.4,24.5,0,.2.3.4.6,1,2.3-7.1,4.6-13.9,6.5-20.8.4-1.3-.4-2.9-.8-4.3-.5-1.6-.1-2.7,1.6-3.2s2.5.1,3.1,1.8c2.7,8.7,5.6,17.4,8.4,26.1q0-.15.3,0c1.4-6,2.7-12,4.1-18,.6-2.6,1.2-5.3,1.7-7.9.4-1.8,1.4-2.4,3.2-2.1C404.3,126.832,404.7,128.032,404.4,129.532Zm258.2.2a4.36,4.36,0,0,0-1.5-3,2.6,2.6,0,0,0-2.8.3,5.376,5.376,0,0,0-1,3.3c-.1,4.5,0,9,0,13.7-1.6-1.5-3.1-2.7-4.4-4.1-3.9-4.1-7.7-8.3-11.7-12.3a4.907,4.907,0,0,0-3.9-1.1c-.7.1-1.4,2.1-1.4,3.2-.1,8.9-.1,17.7-.1,26.5,0,2,.2,3.9,2.8,3.8s2.6-1.9,2.6-3.9v-18.6c0-.7.1-1.4.2-2.7,4,4.3,7.4,8.2,11.2,11.8,3.1,3,5.5,5.9,4.7,10.6a2.309,2.309,0,0,0,2.5,2.9c2,.1,2.9-1,2.9-2.9v-9.2C662.7,141.932,662.7,135.832,662.6,129.732Zm-99.9-3.2a4.686,4.686,0,0,0-1.7,3.4c-.2,4.7-.1,9.3-.1,13.9a1.128,1.128,0,0,1-.8.1,21.976,21.976,0,0,0-2-2.3c-4.4-4.7-8.7-9.5-13.3-14.1a4.907,4.907,0,0,0-3.9-1.1c-.6.2-1.4,2.1-1.4,3.2-.1,9-.1,18-.1,27,0,1.9.6,3.3,2.8,3.3,2.2-.1,2.7-1.5,2.7-3.4v-19.1c0-.7.1-1.5.2-2.8,3.8,4,7.1,7.7,10.6,11.2,3.3,3.2,6.4,6.3,5.3,11.4v.3c.2,1.7,1.1,2.6,2.8,2.5a2.415,2.415,0,0,0,2.6-2.6v-27.8C566.4,126.932,564.7,125.432,562.7,126.532Zm-32.5,8v17.2c-.1,4.9-3.3,8.1-8.3,8.2-3.8,0-7.7.1-11.5,0-3.9-.1-7.2-2.6-7.3-6.4-.3-6.9-.3-13.8,0-20.6.2-3.6,3.6-6.3,7.4-6.5a116.108,116.108,0,0,1,11.8,0A8.09,8.09,0,0,1,530.2,134.532Zm-5.3,1a4.152,4.152,0,0,0-4.2-4.4q-4.2-.15-8.4,0c-2.8.1-4.1,1.5-4.2,4.3-.1,2.6,0,5.2,0,7.9,0,2.6-.1,5.2,0,7.9s1.3,4,4.1,4q4.05.15,8.1,0c3.1,0,4.5-1.4,4.6-4.5C525,145.632,525,140.632,524.9,135.532Zm70.5,5.5H584.9c-3.7-.1-5-1.2-5-4.8,0-3.9,1.1-5.1,4.9-5.1h11c1.7,0,3.1-.3,3.1-2.3.1-2-1.2-2.5-2.9-2.5-4.5,0-8.9-.1-13.4,0a7.956,7.956,0,0,0-8,7.2,21.764,21.764,0,0,0,.1,5.7,6.729,6.729,0,0,0,7.1,6c3.5,0,7-.1,10.5,0,3.2.1,4.1,1.2,4,5-.1,3.7-1.1,4.9-4.2,4.9H578.5c-1.8,0-4-.2-4,2.5-.1,2.7,2.1,2.3,3.8,2.3h7.6c2.8,0,5.6.1,8.5.1,3.9-.1,6.3-1.9,6.9-5.8a31.381,31.381,0,0,0,.1-8.1C601,142.932,598.7,141.132,595.4,141.032Zm-138.2-.1h-9.9c-3.6,0-4.9-1.2-4.9-4.8,0-3.8,1.2-5,5-5h11c1.6,0,3-.2,3-2.3s-1.2-2.5-2.9-2.5c-3.9,0-7.9.1-11.8,0-3.6-.1-6.9.8-8.5,4.3a13.384,13.384,0,0,0,.2,11.4,5.878,5.878,0,0,0,5.6,3.2h9.2c5.3,0,5.9.7,5.7,5.9-.1,3.1-1.1,4.1-4.1,4.1H439.9c-1.7,0-2.6.7-2.6,2.5.1,1.8,1.1,2.2,2.6,2.2h8.9c2.7,0,5.4.1,7.8,0,4.5-.1,7.1-2.7,7.3-7.2v-5C463.9,143.132,461.7,140.932,457.2,140.932Zm36,14.2c-3.5,0-7,.1-10.5,0-3.6,0-4.9-1.3-4.9-4.9v-13.6c0-4.3,1.3-5.6,5.7-5.6h9.4c1.5,0,2.6-.6,2.6-2.2,0-1.7-.9-2.5-2.6-2.5-4.2,0-8.4-.2-12.6,0-4.7.2-7.7,3.6-7.8,8.2v8.4c0,3,0,6,.1,8.8,0,4.9,3.2,8,8,8.1h12.6c1.5,0,3.1.1,3.1-2.1S495,155.132,493.2,155.132Zm131.1.2c-.9-.4-2.1-.1-3.3-.1v-24.2c1.3,0,2.5.3,3.5-.1.8-.3,2.1-1.4,2-2-.1-1-1.2-2.5-1.9-2.5-4.2-.2-8.5-.2-12.8,0-.8,0-2,1.6-2,2.4,0,.7,1.3,1.7,2.2,2.1s2,.1,3.2.1v24.2c-1.3,0-2.3,0-3.4.1-1.5.1-2.5.7-2.5,2.4a2.12,2.12,0,0,0,2.4,2.4h12.8c1.6,0,2.7-1.1,2.3-2.5C626.6,156.632,625.3,155.732,624.3,155.332Zm-197.5-.1h-3.3v-24.2c1.3,0,2.4.3,3.3-.1s2.1-1.4,2.1-2.2c-.1-.8-1.3-2.3-2.1-2.3-4.1-.2-8.3-.2-12.5,0-.7,0-1.8,1.5-2,2.4-.3,1.5.7,2.2,2.2,2.2h3.4v24.2c-1.4,0-2.6,0-3.7.1a2.194,2.194,0,0,0-2.5,2.4c0,1.7.9,2.3,2.5,2.3h12.6c1.5,0,2.6-.5,2.6-2.2C429.5,156.032,428.4,155.232,426.8,155.232Z"/><path class="b" d="M269.6,145.032c.4-.3.7-.5,1.1-.8,4.1-2.9,5.4-11.5,2-15.2a10.666,10.666,0,0,0-5.4-2.7,12.057,12.057,0,0,0-9,1.9c-1.8,1.1-3.7,2-5.1-.9-.3-.6-1.9-1-2.7-.8-.7.1-1.5,1.4-1.5,2.1v28.8c0,1.8,1.1,2.6,2.9,2.5,2,0,2.5-1.2,2.5-2.9v-11.3c3,0,5.6-.1,8.2.1a4.112,4.112,0,0,1,2.7,1.7c1.9,3.5,3.6,7.1,5.4,10.7.7,1.5,1.5,2.6,3.4,1.7s1.7-2.3.9-3.9C273.2,152.432,271.5,148.832,269.6,145.032Zm-4.3-4.2c-3.6.3-7.1.1-10.9.1,0-2.3-.2-4.4,0-6.5.2-2.2,1.8-3.2,3.8-3.3,2.3-.1,4.5-.1,6.8,0,2.7.1,4,1.6,4.1,4.4C269.2,138.432,267.8,140.632,265.3,140.832Zm-56.1-11.4v27.5c0,1.9-.6,3-2.7,3-2.2,0-2.8-1.2-2.5-3,.7-4-1.1-6.7-3.9-9.3-4.2-4-8-8.4-12.4-13.1v22.3c0,1.9-.5,3.2-2.8,3.2-1.6,0-2.5-.6-2.5-2.3,0-9.7,0-19.4.1-29.1,0-.7.7-1.9,1.2-2a5.622,5.622,0,0,1,3.4.6,31.076,31.076,0,0,1,4,4.1c3.8,4,7.5,8,11.3,12,.5.4.9.7,1.6,1.3v-15.2c0-1.9.5-3.1,2.6-3.1S209.2,127.632,209.2,129.432Zm-33.6,28.2c0,2-1.4,2.3-3,2.3-6.7,0-13.4-.1-20.2,0-2,0-2.9-.8-2.9-2.8v-28c0-2,.9-2.8,2.9-2.8h19.4c1.6,0,2.8.5,2.8,2.3,0,2-1.2,2.4-2.9,2.4H157c-1.7,0-2.3.6-2.2,2.3.1,2.4,0,4.8,0,7.6h15.3c1.6,0,3,.1,3,2.3s-1.4,2.5-3.1,2.5H155v9.4c.9,0,1.8.1,2.7.1h14.9C174.2,155.232,175.6,155.632,175.6,157.632Zm124.6-29c-.8-2-2.5-2.3-4.5-2.3a3.733,3.733,0,0,0-4.1,2.5c-3.8,9.2-7.6,18.5-11.5,27.7-.7,1.6-.3,2.6,1.3,3.3,1.6.8,2.6.3,3.3-1.3a73.661,73.661,0,0,1,3-7,3.467,3.467,0,0,1,2.5-1.6c3.8-.2,7.7,0,11.5-.1a2.763,2.763,0,0,1,3,2.2,50.145,50.145,0,0,0,2.9,6.7,3.225,3.225,0,0,0,2.6,1.2c.9-.1,1.7-1.1,2.4-1.6a5.287,5.287,0,0,0-.7-1.5Zm-9.7,16.4c1.8-4.6,3.6-8.9,5.6-13.7,2,4.8,3.8,9.1,5.7,13.7Zm-147.3,12.5c.1,2.1-1.3,2.3-3,2.3H127.6c-5.1,0-8.3-3.1-8.4-8.3,0-2.7.1-5.5.1-8.2v-8.4c.1-5.2,3.4-8.5,8.6-8.6,3.8-.1,7.7,0,11.5,0,1.7,0,2.9.4,2.9,2.4,0,2.1-1.3,2.3-3,2.3-3.1,0-6.3-.1-9.4,0-3.9.1-5.2,1.4-5.2,5.3v14.1c0,3.5,1.2,4.7,4.8,4.7,3.6.1,7.2,0,10.7,0C141.9,155.132,143.2,155.532,143.2,157.532Zm100.1-28.7c0,1.6-1.1,2.2-2.6,2.2h-8.9v25.6c0,1.9-.4,3.2-2.7,3.3-2.4,0-2.6-1.4-2.6-3.3,0-7.7-.1-15.4.1-23,0-2.1-.6-2.8-2.7-2.6-2.2.2-4.4,0-6.5,0-1.5,0-2.3-.6-2.3-2.1,0-1.6.7-2.6,2.3-2.6h23.5A2.194,2.194,0,0,1,243.3,128.832Zm97.4,31.2H319a21.157,21.157,0,0,1-.2-2.4v-27.7c0-2,.3-3.6,2.7-3.5,2.3.1,2.6,1.6,2.6,3.4v22.2a30.144,30.144,0,0,1,.1,3.2h14.7c.7,0,1.6-.3,2,.1a4.89,4.89,0,0,1,2,2.5C343.3,159.332,342.2,160.032,340.7,160.032Z"/></svg>