<svg xmlns="http://www.w3.org/2000/svg" width="818" height="314" viewBox="0 0 818 314"><defs><style>.a{fill:#a2cd6f;}.b{fill:#89bce3;}.c{fill:#fff;}.d{fill:#82c144;}.e{fill:#84c245;}</style></defs><title>ExpoLogo</title><path class="a" d="M376.215,41.482c14.789-7.671,29.476-15.548,44.4-22.947,11.548-5.725,24.029-6.825,36.756-5.992,11.282.739,21.492,4.573,31.419,9.831,28.675,15.187,57.5,30.084,86.262,45.115,3.233,1.689,6.4,3.51,10.2,5.608-4.9.764-9.129,1.661-13.408,2.05-16.244,1.477-32.48,3.263-48.762,4.036-17.253.819-34.556.866-51.834.768-10.192-.057-20.378-1.051-30.567-1.624a4.767,4.767,0,0,0-.9-.9q-8.173-4.653-16.376-9.258Q399.8,54.974,376.174,41.809C376.187,41.7,376.2,41.591,376.215,41.482Z"/><path class="b" d="M189.013,92.066c6.4-1.068,12.778-2.237,19.193-3.18,9.808-1.441,19.627-2.819,29.464-4.046,7.252-.9,14.533-1.6,21.814-2.254,10.144-.908,20.3-1.708,30.452-2.508,3.388-.267,6.785-.527,10.181-.563,20.96-.219,41.925-.7,62.88-.422,12,.161,24,1.365,35.955,2.547,8.82.872,17.557,2.548,26.351,3.711,4.827.638,9.689,1.069,14.549,1.395,13.558.91,27.112,2.043,40.687,2.463,11.683.361,23.392-.1,35.089-.276,3.92-.059,7.846-.248,11.754-.572,14.05-1.166,28.137-2.044,42.127-3.726,17-2.044,33.923-4.8,50.881-7.225a3.011,3.011,0,0,1,1.954.392c-3.456,1.278-6.858,2.738-10.379,3.8-14.007,4.232-27.945,8.762-42.116,12.369-12.54,3.192-25.3,5.6-38.067,7.79a197.383,197.383,0,0,1-25.945,2.754c-17.962.666-35.963,1.373-53.916.882-14.493-.4-28.947-2.44-43.4-3.912-10.989-1.119-21.934-2.7-32.933-3.685-10.929-.979-21.895-1.575-32.855-2.147q-14.369-.752-28.76-1.061-29.85-.652-59.7-1.074-21.873-.342-43.748-.521c-7.149-.066-14.3-.011-21.45-.011Z"/><path class="a" d="M376.215,41.482c-.014.109-.028.218-.04.327-.87.4-1.75.771-2.607,1.194q-23.41,11.568-46.815,23.148c-2.371,1.173-4.73,2.373-7.094,3.56-4.788.23-9.584.351-14.362.71q-30.653,2.3-61.3,4.718a58.653,58.653,0,0,1-8.689.318c.684-.43,1.346-.9,2.057-1.286,25.366-13.6,50.53-27.587,76.181-40.621,16-8.131,32.675-7.52,48.863.477C367.1,36.342,371.619,38.988,376.215,41.482Z"/><path class="c" d="M709.267,244.193c0,7.756-.205,14.911.072,22.047.189,4.861-3.854,7.563-8.436,6.306-2.946-.808-4.3-2.749-4.3-6.318q-.015-29.477,0-58.955c0-3.231.015-6.463,0-9.694-.016-2.525.964-4.49,3.4-5.333,2.8-.971,6.189-.159,7.262,2.108,1.29,2.726,2.8,2.166,4.765,1.142,6.2-3.229,12.685-4.834,19.7-3.363,7.25,1.521,11.848,6.739,11.972,14.144.158,9.342.19,18.693,0,28.034-.174,8.348-6.206,14.1-14.537,14.543a31.32,31.32,0,0,1-16.23-3.168C711.938,245.189,710.879,244.846,709.267,244.193Zm0-23.985c0,3.666-.022,7.331.006,11,.028,3.829,1.631,5.464,5.38,5.491q5.5.039,11,0c3.752-.024,5.39-1.631,5.414-5.467q.068-11,0-21.993c-.024-3.674-1.632-5.318-5.249-5.39q-5.626-.111-11.257,0c-3.625.07-5.231,1.727-5.278,5.365C709.228,212.877,709.264,216.543,709.263,220.208Z"/><path class="c" d="M112.388,220.313c0,4.365.047,8.732-.01,13.1-.117,9.066-6.354,15.233-15.419,15.274-5.5.025-11,.04-16.5,0-8.595-.068-14.951-6.264-15.05-14.832q-.156-13.618,0-27.241A14.45,14.45,0,0,1,79.887,192.1q9.034-.135,18.073.01a14.435,14.435,0,0,1,14.4,14.319c.118,4.624.022,9.254.022,13.882Zm-34.128-.364c0,4.184-.049,8.369.016,12.552.045,2.853,1.334,4.135,4.2,4.177q6.405.095,12.813,0c2.851-.048,4.166-1.364,4.182-4.2q.069-12.161,0-24.32c-.017-2.9-1.225-4.057-4.214-4.1-4.183-.06-8.369-.054-12.552,0-3.334.041-4.4,1.109-4.439,4.4C78.223,212.278,78.256,216.114,78.26,219.949Z"/><path class="c" d="M605.9,226.394v10.3c.956,0,1.88,0,2.8,0,7.6,0,15.2-.015,22.794.007,4.061.012,6.311,2.2,6.288,6.02-.021,3.654-2.3,5.932-6.168,5.947q-16.375.066-32.751,0c-3.815-.018-5.964-2.23-5.973-6.1q-.05-22.27,0-44.541c.008-3.944,2.039-5.933,6-5.944q15.459-.041,30.917,0c4.184.006,6.294,1.85,6.429,5.536.147,3.978-1.972,6.3-6.246,6.377-7.072.124-14.148.037-21.222.039h-2.8v10.376c3.286,0,6.486,0,9.687,0,4.1,0,8.213-.11,12.312.043,4.533.169,6.868,3.286,5.909,7.574-.612,2.734-2.263,4.253-5.138,4.294-6.893.1-13.788.058-20.682.074C607.454,226.4,606.85,226.394,605.9,226.394Z"/><path class="c" d="M753.67,220.206c0-4.719-.055-9.438.013-14.156a14.11,14.11,0,0,1,13.606-13.909q9.693-.232,19.4,0a14.348,14.348,0,0,1,13.707,13.9q.141,14.154,0,28.312c-.06,6.952-4.971,13.231-11.911,13.83a139.841,139.841,0,0,1-22.981,0c-6.8-.54-11.66-6.737-11.83-13.565,0-.174-.006-.349-.006-.524Q753.669,227.154,753.67,220.206Zm34.1.186c0-3.845.024-7.69-.007-11.534-.028-3.373-1.388-4.905-4.687-4.993q-6.156-.167-12.32,0c-3.131.08-4.413,1.476-4.424,4.59q-.041,11.8,0,23.594c.009,3.308,1.3,4.616,4.571,4.644q6.029.051,12.059,0c3.393-.023,4.773-1.385,4.8-4.766C787.8,228.082,787.768,224.237,787.768,220.392Z"/><path class="c" d="M472.277,220.322c0,4.543.058,9.088-.013,13.63-.132,8.521-6.243,14.61-14.792,14.718q-8.518.108-17.039,0a14.631,14.631,0,0,1-14.917-14.96q-.065-13.5,0-27a14.4,14.4,0,0,1,14.377-14.6q9.171-.155,18.348,0a14.14,14.14,0,0,1,14.01,14.049c.088,4.717.016,9.436.016,14.155Zm-12.67-.107c0-3.932.023-7.864-.008-11.8-.024-2.974-1.278-4.451-4.212-4.543-4.277-.134-8.563-.115-12.842-.011-2.857.07-4.33,1.609-4.349,4.491q-.084,12.057,0,24.115c.021,2.774,1.489,4.175,4.261,4.213q6.421.087,12.844,0c2.9-.042,4.271-1.485,4.3-4.41C459.632,228.253,459.607,224.234,459.607,220.215Z"/><path class="c" d="M495.021,212.542c-.08,1.64-.156,2.479-.157,3.319q-.013,12.84-.006,25.68c0,4.839-2.032,7.155-6.246,7.143-4.319-.012-6.414-2.312-6.416-7.077-.005-14.238.018-28.476-.021-42.713-.008-2.8.4-5.51,3.363-6.426s6.017-.86,8.46,1.765c5.115,5.5,10.3,10.933,15.46,16.39,1.852,1.96,3.715,3.91,5.9,6.211.1-1.054.211-1.671.212-2.288.015-5.59-.032-11.181.028-16.771.04-3.787,2.061-5.653,5.957-5.7,4.125-.048,6.655,1.951,6.672,5.651q.1,22.536,0,45.072c-.016,3.748-2.606,5.929-6.555,5.885-3.8-.043-6.44-2.252-5.992-5.975.738-6.12-1.406-10.512-5.895-14.6C504.714,223.5,500.289,218.162,495.021,212.542Z"/><path class="c" d="M244.13,236.7h16.25c3.319,0,6.638-.029,9.956.01,3.762.044,5.729,1.964,5.794,5.566.073,4.007-1.794,6.173-5.6,6.39-1.567.09-3.143.021-4.715.021q-13.755,0-27.51,0c-4.966-.006-6.824-1.853-6.826-6.774q-.009-21.746,0-43.49c0-4.564,1.761-6.331,6.33-6.337,10.218-.016,20.437.092,30.653-.044,5.119-.067,7.111,3.613,5.814,8.375-.663,2.431-2.74,3.443-5.3,3.432-7.336-.03-14.674.087-22.007-.064-2.368-.048-3.1.707-2.877,2.98a32.022,32.022,0,0,1,.007,5.5c-.139,1.867.6,2.4,2.4,2.375,6.811-.082,13.623-.023,20.435-.033,2.315,0,4.188.871,5,3.07.876,2.359,1.166,5-.855,6.841a7.755,7.755,0,0,1-4.652,1.768c-6.545.193-13.1.146-19.647.043-2-.031-2.866.451-2.7,2.619C244.274,231.362,244.13,233.812,244.13,236.7Z"/><path class="c" d="M134.958,212.836c0,10.2.018,19.714-.008,29.23-.013,5.052-3.785,7.78-8.678,6.3-2.41-.73-3.935-2.321-3.941-4.922-.036-15.457-.018-30.915-.025-46.372a4.442,4.442,0,0,1,3.214-4.6c3.037-.9,6.068-.782,8.472,1.779,3.047,3.245,6.074,6.51,9.129,9.749,3.94,4.177,7.9,8.336,12.322,13v-3.313c0-4.978.1-9.958-.024-14.933-.16-6.319,4.247-7.435,8.966-6.418,2.4.517,3.7,2.831,3.706,5.951q.021,22.008.006,44.016c0,.174,0,.349,0,.524-.116,3.642-2.5,5.872-6.263,5.855-4-.019-6.812-2.246-6.269-5.98.953-6.552-1.882-11-6.389-15.192-4.212-3.916-7.974-8.316-11.943-12.493C136.65,214.409,136.018,213.851,134.958,212.836Z"/><path class="c" d="M294.9,213.429V227.2q0,7.2,0,14.41c-.007,4.72-2.141,7.059-6.437,7.071-4.162.012-6.221-2.255-6.223-6.9-.006-14.234.03-28.469-.028-42.7-.012-2.876.237-5.485,3.326-6.708a8.259,8.259,0,0,1,8.644,2.122q9.494,10.128,19,20.241c.574.61,1.208,1.162,2.2,2.111,0-6.393.1-12.29-.029-18.182-.133-6.006,4.178-7.508,9.058-6.278a4.739,4.739,0,0,1,3.6,4.923q.031,22.923-.013,45.847c-.011,3.325-2.445,5.414-6.042,5.519-3.733.11-6.285-1.935-6.557-5.3a11.917,11.917,0,0,1,0-2.616c.623-4.353-.724-7.736-3.981-10.868-5.528-5.316-10.631-11.074-15.913-16.646Z"/><path class="d" d="M319.659,69.711c2.364-1.187,4.723-2.387,7.094-3.56q23.4-11.58,46.815-23.148c.857-.423,1.737-.8,2.607-1.194q23.616,13.176,47.231,26.356,8.211,4.588,16.376,9.258a4.767,4.767,0,0,1,.9.9c-7.976-.886-16.021-1.37-23.916-2.728C384.6,70.066,352.207,68.731,319.659,69.711Z"/><path class="c" d="M673.27,219.682c4.618,5.433,9.133,10.744,13.646,16.055.678.8,1.37,1.585,2.024,2.4,2.864,3.575,2.5,6.276-1.256,9.383-2.631,2.178-5.919,1.721-8.479-1.3-4.616-5.454-9.172-10.959-14.025-16.767-2.555,3.039-4.948,5.871-7.325,8.716-2.294,2.746-4.517,5.553-6.872,8.245-2.611,2.984-5.822,3.28-8.5.926-3.575-3.148-3.885-5.833-1.024-9.23,5.11-6.069,10.237-12.124,15.572-18.439-3.154-3.748-6.274-7.458-9.4-11.166-1.8-2.136-3.645-4.233-5.394-6.408-2.488-3.095-2.027-6,1.316-8.842a5.578,5.578,0,0,1,8.349.73c3.976,4.636,7.816,9.388,11.723,14.083.431.518.928.98,1.6,1.68,3.358-4,6.6-7.847,9.833-11.7,1.234-1.471,2.385-3.019,3.706-4.407a5.551,5.551,0,0,1,7.989-.433c3.331,2.777,3.987,5.66,1.591,8.6-4.355,5.342-8.889,10.539-13.346,15.8C674.449,218.252,673.907,218.916,673.27,219.682Z"/><path class="c" d="M199.8,231.339c3.528-9.616,6.858-18.689,10.187-27.762.931-2.537,1.83-5.087,2.8-7.608,1.509-3.919,3.967-5.152,7.509-3.831,4.807,1.792,6.1,4.242,4.465,8.564-2.011,5.3-4.066,10.577-6.107,15.863q-4.85,12.566-9.705,25.127c-1.927,4.994-4.592,7.009-9.256,6.993-4.446-.016-7.194-2.142-9.045-6.952-5.166-13.424-10.28-26.868-15.542-40.254-2.613-6.65,1.193-8.714,5.97-9.778,2.636-.587,4.557.966,5.749,4.2q4.832,13.13,9.613,26.278C197.48,225.041,198.532,227.9,199.8,231.339Z"/><path class="c" d="M18.608,220c0-4.456-.031-8.912.007-13.368a14.415,14.415,0,0,1,14.444-14.528c6.639-.085,13.28-.059,19.92-.012,3.691.025,5.883,2.3,5.864,5.893-.02,3.689-2.092,5.775-5.879,5.841-5.762.1-11.527.073-17.285.281-3.063.11-4.319,1.357-4.363,4.4q-.169,11.924-.009,23.851c.037,3.017,1.642,4.3,5.041,4.326,5.766.048,11.533,0,17.3.021,4.274.013,6.376,1.941,6.405,5.821.03,4.062-2.086,6.132-6.414,6.153-6.727.033-13.455.062-20.182,0-8.523-.085-14.792-6.471-14.843-15.04C18.586,229.087,18.608,224.544,18.608,220Z"/><path class="c" d="M350.078,204.029c-4.083,0-7.744.082-11.4-.021-4.173-.118-6.362-2.275-6.371-6.043-.008-3.477,2.158-5.854,5.632-5.868q18.6-.073,37.2.006c3.331.014,5.318,2.052,5.568,5.372.254,3.38-1.565,5.826-4.831,6.359a22.905,22.905,0,0,1-3.388.191c-2.8.033-5.589.023-8.383.047a6.433,6.433,0,0,0-1.131.3v2.956c0,11.527.02,23.055-.011,34.583-.012,4.455-2.285,6.766-6.5,6.776-4.088.01-6.369-2.3-6.379-6.588q-.037-17.421-.009-34.845Z"/><path class="c" d="M406.729,203.979v32.728c1.446,0,2.809-.061,4.164.012a5.145,5.145,0,0,1,5.218,4.84c.318,3.848-1,6.064-4.134,6.865a7.392,7.392,0,0,1-1.8.248c-6.552.018-13.1.083-19.656-.009-5.724-.079-6.953-4.329-5.595-8.752.637-2.078,2.456-3.114,4.674-3.191,1.369-.047,2.741-.008,4.4-.008v-8.367c0-7.251-.08-14.5.047-21.752.039-2.182-.608-2.842-2.791-2.81-4.878.072-7.185-2.9-6.095-7.675a4.647,4.647,0,0,1,4.605-3.955q10.479-.175,20.964-.01c3.026.049,4.835,2.356,4.866,5.663.034,3.58-1.656,5.712-4.8,5.986C409.507,203.9,408.217,203.914,406.729,203.979Z"/><path class="e" d="M566.89,226.993c0,3.973.014,7.889,0,11.806-.021,4.6-2.066,6.721-6.435,6.7-4.332-.018-6.385-2.18-6.395-6.758-.008-3.911,0-7.821,0-12.01-4.13,0-8.035.019-11.94,0-4.277-.026-6.442-2.14-6.386-6.181.053-3.87,2.193-5.829,6.417-5.848,3.669-.017,7.339-.014,11.008-.026a6.988,6.988,0,0,0,.9-.184c0-3.882-.007-7.856,0-11.831.011-4.769,2.2-6.91,6.909-6.771,3.649.108,5.834,2.217,5.908,5.921.083,4.184.019,8.372.019,12.89,4.145,0,8.137-.014,12.129,0,4.246.019,6.364,1.966,6.4,5.838.039,4.1-2.055,6.152-6.36,6.188-3.756.031-7.513.023-11.27.039A6.052,6.052,0,0,0,566.89,226.993Z"/><path class="c" d="M411.971,166.755q2.046-9.018,4.089-18.037.894-3.954,1.749-7.915c.384-1.792,1.406-2.448,3.223-2.091,1.843.362,2.205,1.557,1.85,3.1q-3.217,14.013-6.515,28.009c-.486,2.052-2.019,2.573-4,2.542-2.124-.033-3.977-.112-4.747-2.642-1.674-5.5-3.475-10.958-5.412-17.021-1.9,5.659-3.646,10.776-5.328,15.915-.652,1.992-1.274,3.748-3.94,3.75-3.866,0-4.4-.264-5.334-4.157-2.054-8.558-4.06-17.127-6.109-25.687-.425-1.778-.544-3.32,1.777-3.815,2.4-.511,3.013.943,3.424,2.858,1.756,8.179,3.565,16.346,5.368,24.515a4.8,4.8,0,0,0,.609.974c2.272-7.116,4.55-13.907,6.536-20.782.361-1.252-.371-2.877-.777-4.277-.478-1.646-.143-2.721,1.6-3.2,1.678-.465,2.534.115,3.069,1.816,2.747,8.726,5.6,17.418,8.416,26.121Z"/><path class="c" d="M675.834,156.359c0-4.7-.063-9.227.045-13.745a5.418,5.418,0,0,1,1.026-3.3,2.884,2.884,0,0,1,2.833-.314,4.3,4.3,0,0,1,1.488,3c.135,6.113.067,12.229.066,18.344,0,3.058-.017,6.115,0,9.173.013,1.939-.927,2.956-2.852,2.945a2.347,2.347,0,0,1-2.545-2.919c.836-4.677-1.628-7.621-4.707-10.578-3.759-3.611-7.2-7.549-11.192-11.778-.11,1.291-.222,2.009-.223,2.727-.015,6.2-.029,12.4,0,18.607.01,1.957-.035,3.849-2.638,3.932-2.623.082-2.811-1.782-2.808-3.76.011-8.823-.046-17.647.068-26.469.014-1.129.732-3.075,1.385-3.192a5.072,5.072,0,0,1,3.944,1.066c4.041,3.981,7.812,8.234,11.74,12.332C672.725,153.734,674.164,154.864,675.834,156.359Z"/><path class="c" d="M579.356,156.156c0-4.621-.113-9.248.079-13.861a4.545,4.545,0,0,1,1.7-3.352c2-1.1,3.653.391,3.663,3.109.031,9.085.011,18.17.01,27.255,0,.175,0,.349-.007.524a2.713,2.713,0,0,1-5.413.161.851.851,0,0,1-.014-.26c1.143-5.137-2.036-8.195-5.261-11.369-3.521-3.466-6.812-7.167-10.608-11.193-.1,1.336-.211,2.064-.213,2.792-.013,6.376-.036,12.754.009,19.13.013,1.932-.521,3.318-2.694,3.364-2.225.047-2.754-1.415-2.753-3.3.007-9-.048-18,.067-26.992.014-1.116.781-3.047,1.433-3.152a5.117,5.117,0,0,1,3.934,1.118c4.566,4.57,8.914,9.356,13.329,14.076.7.747,1.355,1.536,2.031,2.306Z"/><path class="c" d="M548.651,155.517c0,2.88.047,5.761-.01,8.639-.1,4.94-3.32,8.115-8.277,8.163-3.839.037-7.68.058-11.519-.014s-7.154-2.584-7.344-6.435c-.34-6.865-.315-13.769.009-20.635.172-3.645,3.59-6.329,7.439-6.477,3.922-.15,7.857-.151,11.779-.008a8.062,8.062,0,0,1,7.909,8.128C548.708,149.756,548.65,152.637,548.651,155.517Zm-22.063.151c0,2.622-.066,5.245.018,7.864.088,2.744,1.339,3.974,4.067,4.042,2.708.067,5.419.052,8.127.009,3.075-.05,4.533-1.392,4.587-4.471.09-5.067.081-10.137,0-15.2a4.167,4.167,0,0,0-4.217-4.426c-2.792-.111-5.6-.115-8.387.006s-4.115,1.548-4.182,4.316C526.536,150.424,526.586,153.046,526.588,155.668Z"/><path class="c" d="M451.252,270.635v9.645h9.555c1.834,0,3.671.051,5.5-.016,1.731-.063,2.989.455,3.052,2.373.065,1.987-1.226,2.415-2.947,2.409-4.89-.017-9.78.044-14.67.08-.074,0-.147.078-.431.24v9.19c5.295,0,10.5-.007,15.716.006.957,0,2.088-.211,2.823.216a3.411,3.411,0,0,1,1.692,2.38c-.035.8-1.113,1.634-1.88,2.28-.315.265-1.012.09-1.536.09-6.289,0-12.579.015-18.868,0-2.965-.009-3.605-.606-3.613-3.479-.025-9,.026-18-.032-26.993-.016-2.467,1.022-3.443,3.468-3.411,6.114.079,12.229.028,18.344.026,1.688,0,3.195.175,3.252,2.421.058,2.267-1.468,2.528-3.141,2.537C462.217,270.653,456.894,270.635,451.252,270.635Z"/><path class="c" d="M288.073,157.438c1.879,3.792,3.638,7.39,5.443,10.966.812,1.608,1,2.985-.948,3.9-1.863.875-2.721-.2-3.446-1.677-1.77-3.6-3.474-7.235-5.418-10.737a3.948,3.948,0,0,0-2.689-1.727c-2.585-.238-5.2-.082-8.225-.082,0,3.893-.007,7.6,0,11.315,0,1.7-.513,2.859-2.494,2.944-1.846.079-2.885-.685-2.891-2.523-.03-9.6-.047-19.2.05-28.805a2.692,2.692,0,0,1,1.454-2.094c.825-.179,2.385.235,2.673.845,1.375,2.915,3.279,2.026,5.136.908,2.806-1.689,5.829-2.622,8.99-1.923a10.755,10.755,0,0,1,5.38,2.744c3.431,3.708,2.116,12.265-2,15.191C288.807,156.886,288.534,157.1,288.073,157.438ZM272.864,153.3c3.765,0,7.331.163,10.872-.055,2.533-.155,3.934-2.372,3.844-5.339-.084-2.756-1.41-4.277-4.116-4.423a54.261,54.261,0,0,0-6.808.016c-1.983.142-3.582,1.14-3.757,3.322C272.734,148.878,272.864,150.96,272.864,153.3Z"/><path class="c" d="M351.753,270.638v9.641h12.265c1.135,0,2.271-.007,3.407,0,1.673.019,2.6.728,2.551,2.548-.051,1.749-1.037,2.212-2.566,2.2-4.368-.021-8.739.076-13.105-.043-1.968-.053-2.906.395-2.713,2.592.19,2.154.041,4.339.041,6.8,1.1.063,2.013.157,2.93.16,4.893.016,9.786,0,14.679.014,1.7,0,3.244.313,3.234,2.494s-1.561,2.469-3.258,2.471c-6.553.008-13.106-.021-19.659.017-2.327.013-3.238-1-3.217-3.353q.123-13.629,0-27.26c-.019-2.366.924-3.311,3.264-3.287,6.2.066,12.407.029,18.61.018,1.725,0,3.216.274,3.24,2.46.025,2.208-1.513,2.5-3.205,2.51C362.848,270.648,357.441,270.638,351.753,270.638Z"/><path class="c" d="M483.748,285.027c0,4.091-.06,7.75.024,11.405.044,1.936-.692,3.056-2.66,3.046-1.824-.009-2.619-1.1-2.618-2.881.01-9.421-.032-18.843.066-28.263.009-.841.755-2.221,1.393-2.375.856-.206,2.506.264,2.828.926,1.269,2.605,2.84,1.675,4.752,1.007,2.741-.957,5.576-2.05,8.421-2.215,4.565-.265,7.425,2.443,7.872,6.984.445,4.52.553,9.064-4.706,11.657,1.875,3.786,3.679,7.431,5.487,11.075.713,1.438,1.115,2.792-.687,3.8-1.9,1.054-2.956.079-3.745-1.5-1.79-3.585-3.6-7.163-5.294-10.793a2.792,2.792,0,0,0-3-1.9C489.286,285.113,486.684,285.027,483.748,285.027Zm.024-4.753c3.83,0,7.237.087,10.638-.028,2.691-.091,4.085-1.794,4.135-4.688.058-3.314-1.035-4.856-3.926-5.069a46.894,46.894,0,0,0-6.809.023,3.949,3.949,0,0,0-4,3.772C483.634,276.169,483.772,278.082,483.772,280.274Z"/><path class="c" d="M400.807,284.21c0-5.478.03-10.241-.015-15-.017-1.806.111-3.461,2.437-3.5s2.851,1.461,2.842,3.485q-.057,13.359,0,26.719c.007,1.968-.361,3.583-2.74,3.57-2.246-.013-2.788-1.537-2.5-3.408.551-3.617-.874-6.219-3.466-8.709-4.256-4.088-8.173-8.529-12.805-13.427v8.716c0,4.541-.021,9.081.008,13.621.012,1.816-.56,3.153-2.58,3.209-2.183.06-2.716-1.266-2.7-3.25.062-9.08-.015-18.162.083-27.242.012-1.038.745-2.9,1.253-2.939a5.545,5.545,0,0,1,3.931,1.075c3.682,3.593,7.105,7.452,10.634,11.2C396.888,280.136,398.619,281.922,400.807,284.21Z"/><path class="c" d="M222.529,157.02c0-5.472.035-10.36-.018-15.248-.021-1.871.54-3.069,2.623-3.053s2.639,1.337,2.639,3.122q0,13.752,0,27.5c0,1.87-.632,2.971-2.712,3-2.2.03-2.807-1.237-2.51-3.034.653-3.954-1.078-6.665-3.852-9.313-4.194-4-8.013-8.4-12.431-13.1,0,7.843-.018,15.05.012,22.257.008,1.948-.545,3.222-2.8,3.184-1.595-.027-2.471-.644-2.47-2.316.006-9.692-.023-19.384.058-29.075.006-.689.735-1.89,1.236-1.95a5.121,5.121,0,0,1,3.382.59,32.38,32.38,0,0,1,4.04,4.086q5.653,6.006,11.3,12.022C221.368,156.055,221.768,156.352,222.529,157.02Z"/><path class="c" d="M173.347,153.336c5.367,0,10.334.013,15.3-.007,1.609-.006,3.031.114,3.032,2.265,0,2.2-1.377,2.512-3.147,2.5-4.957-.032-9.914-.011-15.027-.011v9.362c.893.049,1.807.138,2.722.141,4.978.015,9.955,0,14.933.012,1.636,0,3.027.407,3,2.423s-1.373,2.328-3.046,2.319c-6.724-.033-13.449-.053-20.173.01-2.01.019-2.863-.785-2.857-2.779q.043-14.016,0-28.032c-.006-2,.909-2.847,2.868-2.839q9.693.041,19.387,0c1.609,0,2.783.517,2.816,2.326.035,1.979-1.211,2.446-2.94,2.432-4.89-.04-9.781.047-14.67-.045-1.729-.033-2.314.561-2.235,2.264C173.432,148.107,173.347,150.541,173.347,153.336Z"/><path class="c" d="M604.381,172.326c-2.533,0-5.067.016-7.6,0-1.714-.012-3.856.393-3.841-2.26.015-2.7,2.168-2.469,4.02-2.47,4.542,0,9.085.016,13.628-.008,3.12-.016,4.081-1.184,4.153-4.93.075-3.832-.763-4.943-4.006-5.011-3.493-.072-6.989.008-10.483-.026-3.827-.036-6.5-2.188-7.094-5.966a21.876,21.876,0,0,1-.114-5.733,7.872,7.872,0,0,1,7.985-7.184c4.453-.1,8.91-.015,13.365-.03,1.706-.006,2.99.515,2.943,2.48-.048,2.013-1.443,2.3-3.1,2.278q-5.5-.06-11.007,0c-3.805.034-4.906,1.215-4.873,5.117.029,3.555,1.254,4.733,5,4.755,3.494.02,6.99-.045,10.483.031,3.317.071,5.591,1.851,5.951,5.107a31.306,31.306,0,0,1-.139,8.068c-.591,3.886-2.984,5.711-6.88,5.778C609.973,172.363,607.177,172.324,604.381,172.326Z"/><path class="c" d="M467.279,172.325c-2.967,0-5.935-.021-8.9.009-1.522.016-2.534-.4-2.556-2.179-.022-1.8.9-2.545,2.568-2.549,4.975-.015,9.95,0,14.924-.018,3.037-.013,3.994-.986,4.112-4.082.2-5.222-.436-5.877-5.7-5.88-3.055,0-6.11-.022-9.164,0a5.874,5.874,0,0,1-5.6-3.243,13.111,13.111,0,0,1-.179-11.359c1.564-3.489,4.861-4.431,8.544-4.337,3.925.1,7.855.033,11.782.021,1.687-.006,2.93.444,2.948,2.455.018,2.133-1.369,2.308-3,2.3-3.666-.028-7.332-.04-11,0-3.817.044-4.966,1.247-4.952,5.042.012,3.561,1.264,4.806,4.912,4.828,3.316.02,6.633-.021,9.949.014,4.513.048,6.663,2.248,6.71,6.821.016,1.658.046,3.318-.021,4.974-.182,4.476-2.846,7.108-7.263,7.177C472.691,172.358,469.985,172.324,467.279,172.325Z"/><path class="c" d="M331.116,170.737c-.719.523-1.51,1.521-2.4,1.622a3.189,3.189,0,0,1-2.627-1.221,49.872,49.872,0,0,1-2.852-6.726c-.544-1.482-1.281-2.221-3.018-2.157-3.834.142-7.681-.054-11.513.12a3.471,3.471,0,0,0-2.45,1.618c-1.162,2.232-2,4.632-2.965,6.967-.654,1.581-1.679,2.069-3.324,1.33-1.6-.721-1.964-1.706-1.281-3.331q5.82-13.851,11.548-27.741a3.933,3.933,0,0,1,4.12-2.543c1.966.009,3.654.27,4.51,2.33q5.863,14.115,11.739,28.225C330.735,169.551,330.828,169.888,331.116,170.737ZM308.955,157.38H320.27l-5.679-13.7Z"/><path class="c" d="M316.037,282.252c0-2.618-.027-5.237,0-7.855.061-5.038,3.229-8.5,8.2-8.69,4.009-.158,8.028-.047,12.043-.035,1.565,0,2.711.485,2.788,2.355.085,2.044-1.166,2.569-2.816,2.593-3.4.049-6.808-.026-10.21.045-3.229.069-4.473,1.24-4.527,4.439q-.13,7.59,0,15.184c.048,3.023,1.289,4.178,4.42,4.241,3.577.073,7.157.007,10.735.033,1.643.012,3.278.164,3.336,2.377.061,2.367-1.614,2.585-3.387,2.59-4.014.011-8.03.069-12.043-.013-5.148-.105-8.4-3.418-8.53-8.624C315.981,288.013,316.038,285.132,316.037,282.252Z"/><path class="c" d="M137.766,155.652c0-2.793-.05-5.586.01-8.377.112-5.183,3.417-8.489,8.563-8.557,3.839-.05,7.678,0,11.518-.009,1.662,0,2.92.357,2.922,2.432,0,2.141-1.323,2.337-2.965,2.32-3.141-.031-6.284-.067-9.423.011-3.892.1-5.156,1.392-5.188,5.257q-.06,7.068,0,14.136c.037,3.486,1.24,4.662,4.776,4.712,3.577.05,7.155.03,10.733.008,1.689-.01,2.961.45,3.014,2.418.057,2.088-1.315,2.348-2.973,2.336-4.188-.031-8.377.01-12.565-.017-5.109-.033-8.281-3.142-8.413-8.294C137.707,161.238,137.766,158.444,137.766,155.652Z"/><path class="c" d="M491,155.327c0-2.8-.027-5.591,0-8.386.053-4.642,3.132-8,7.764-8.185,4.187-.165,8.385-.027,12.577-.049,1.732-.01,2.645.848,2.633,2.531-.011,1.65-1.053,2.234-2.6,2.22q-4.716-.043-9.434,0c-4.373.04-5.664,1.317-5.677,5.589-.013,4.543-.022,9.085,0,13.627.021,3.582,1.277,4.85,4.911,4.9,3.493.051,6.988.028,10.482.012,1.78-.008,3.111.391,3.062,2.592-.05,2.232-1.575,2.149-3.112,2.147-4.192-.006-8.385.031-12.578-.013-4.833-.05-7.95-3.2-8.023-8.08C490.966,161.267,491,158.3,491,155.327Z"/><path class="c" d="M633.712,167.6V143.448c-1.194,0-2.337.285-3.21-.078-.936-.388-2.244-1.385-2.246-2.119,0-.839,1.218-2.367,1.973-2.408a117.312,117.312,0,0,1,12.829.005c.729.041,1.815,1.549,1.908,2.463.065.634-1.176,1.725-2.042,2.044-.978.36-2.189.083-3.451.083V167.6c1.182,0,2.4-.3,3.349.082a4.441,4.441,0,0,1,2.537,2.27c.395,1.425-.679,2.487-2.272,2.5q-6.417.049-12.837-.03c-1.518-.018-2.444-.7-2.4-2.42.046-1.68.968-2.332,2.483-2.391C631.371,167.566,632.409,167.6,633.712,167.6Z"/><path class="c" d="M428.578,270.634v17.4c0,2.883,0,5.766,0,8.648a2.489,2.489,0,0,1-2.712,2.817c-1.883.016-2.553-1.054-2.544-2.864.041-7.6.016-15.2.016-22.8v-3.2c-2.858,0-5.444.032-8.029-.012-1.681-.028-3.479.015-3.485-2.458,0-2.433,1.686-2.5,3.435-2.5q10.612,0,21.226,0c1.781,0,3.517.178,3.55,2.46.034,2.3-1.691,2.524-3.481,2.514C434.028,270.624,431.508,270.634,428.578,270.634Z"/><path class="c" d="M436.354,167.605V143.444c-1.22,0-2.322-.009-3.423,0-1.5.015-2.523-.735-2.156-2.194.239-.946,1.254-2.364,1.987-2.405a113.389,113.389,0,0,1,12.545-.013,3.131,3.131,0,0,1,2.053,2.307c.017.751-1.218,1.817-2.133,2.218-.87.382-2.039.082-3.287.082V167.6c1.112,0,2.211-.024,3.307.006,1.641.046,2.679.813,2.638,2.551-.039,1.668-1.1,2.189-2.634,2.179q-6.279-.042-12.558-.006c-1.578.007-2.5-.611-2.465-2.3a2.232,2.232,0,0,1,2.469-2.417C433.823,167.578,434.95,167.605,436.354,167.605Z"/><path class="c" d="M250.3,143.45v3.113c0,7.5-.014,15,.009,22.5.006,1.883-.4,3.235-2.7,3.282-2.43.049-2.59-1.43-2.582-3.267.031-7.675-.057-15.351.057-23.024.031-2.087-.6-2.793-2.673-2.64-2.168.161-4.358.024-6.538.032-1.452,0-2.3-.578-2.345-2.146-.045-1.6.689-2.556,2.273-2.564q11.773-.058,23.548,0a2.231,2.231,0,0,1,2.411,2.5c-.032,1.634-1.064,2.233-2.613,2.217C256.293,143.428,253.44,143.45,250.3,143.45Z"/><path class="c" d="M342.662,167.6c5.167,0,9.955,0,14.743,0,.7,0,1.6-.253,2.048.086a5.2,5.2,0,0,1,2.01,2.475c.365,1.493-.729,2.161-2.2,2.16-7.148,0-14.3,0-21.684,0-.065-.866-.169-1.616-.17-2.366-.012-9.246.014-18.493-.026-27.74-.008-1.963.26-3.553,2.724-3.492,2.284.058,2.571,1.574,2.563,3.424-.034,7.415-.014,14.829-.013,22.244Z"/></svg>