<?xml version="1.0" encoding="utf-8"?>
<!-- Generator: Adobe Illustrator 22.1.0, SVG Export Plug-In . SVG Version: 6.00 Build 0)  -->
<svg version="1.1" id="Layer_1" xmlns="http://www.w3.org/2000/svg" xmlns:xlink="http://www.w3.org/1999/xlink" x="0px" y="0px"
	 width="512px" height="512px" viewBox="0 0 512 512" style="enable-background:new 0 0 512 512;" xml:space="preserve">
<style type="text/css">
	.st0{fill:#D3DF65;}
</style>
<path class="st0" d="M84.4408112,0c52.1994476,52.7819443,84.4406738,125.3425598,84.4406738,205.4417267
	c0,80.0992584-32.2412262,152.6598663-84.4406738,205.4418182C32.24123,358.101593,0,285.5409851,0,205.4417267
	C0,125.3425598,32.24123,52.7819443,84.4408112,0z M264.1421814,128.4404907
	c-56.6387177,56.6387024-85.1487885,130.7447815-85.5605774,204.9779663
	c74.2330627-0.4118958,148.3391418-28.9220276,204.9778442-85.5607452
	c56.6387024-56.6386566,85.1487732-130.7447968,85.5606995-204.9777832
	C394.8869629,43.2916412,320.7808838,71.8017807,264.1421814,128.4404907z M306.5583191,343.1185913
	c-80.0992279,0-152.6599121,32.2412109-205.4417877,84.4407959C153.898407,479.7588501,226.4590912,512,306.5583191,512
	S459.2181091,479.7588501,512,427.5593872C459.2181091,375.3598022,386.6575623,343.1185913,306.5583191,343.1185913z"/>
</svg>
