<?xml version="1.0" encoding="utf-8"?>
<!-- Generator: Adobe Illustrator 22.1.0, SVG Export Plug-In . SVG Version: 6.00 Build 0)  -->
<svg version="1.1" id="Layer_1" xmlns="http://www.w3.org/2000/svg" xmlns:xlink="http://www.w3.org/1999/xlink" x="0px" y="0px"
	 viewBox="0 0 440.453 218.884" style="enable-background:new 0 0 440.453 218.884;" xml:space="preserve">
<style type="text/css">
	.st0{fill:url(#SVGID_1_);}
	.st1{fill:url(#SVGID_2_);}
	.st2{fill:url(#SVGID_3_);}
	.st3{fill:#FFFFFF;}
	.st4{fill:#2141FF;}
</style>
<linearGradient id="SVGID_1_" gradientUnits="userSpaceOnUse" x1="334.997" y1="502.258" x2="334.997" y2="502.258" gradientTransform="matrix(1 0 0 1 0 -455.7839)">
	<stop  offset="0" style="stop-color:#00539F"/>
	<stop  offset="1" style="stop-color:#C4CBE5"/>
</linearGradient>
<path class="st0" d="M334.997,46.474"/>
<g>
	<g>
		<path d="M112.626,107.919l0.271,0.536l4.633,9.003l4.5,8.665c3.024,5.844,5.979,11.824,9.472,17.329h0.271
			c0.2-0.334,0.334-0.471,0.334-0.536c3.359-5.374,6.111-11.151,9.203-16.657l4.834-8.866l4.976-8.801l0.401-0.672h0.873
			l0.067,0.738l0.738,7.051l0.873,8.267l0.74,7.117l0.741,6.45l1.071,8.665c0.471,3.493,0.81,5.778,0.941,6.921
			c0,0,0.067,0.268,0.136,0.737c-1.209-0.202-1.613-0.268-2.821-0.268c-1.411,0-2.083,0.065-3.493,0.268
			c0-8.331-1.143-16.656-2.151-24.856l-0.94-8.194l-0.134-0.869c-1.614,2.416-1.881,2.952-4.77,8.326l-4.365,8.266l-4.165,7.926
			c-2.821,5.439-3.089,6.046-4.101,8.73h-0.803c-1.077-2.487-1.344-3.023-3.964-7.992c-2.687-5.308-5.239-10.682-8.193-15.854
			l-4.502-8.128l-0.402-0.673l-0.137,0.81l-1.006,8.123l-0.94,8.533c-0.54,5.242-1.212,10.545-1.212,15.853
			c-0.94-0.202-1.276-0.268-2.147-0.268c-1.075,0-1.544,0.065-2.553,0.268c2.014-9.943,3.156-20.084,4.567-30.094
			c0.672-5.308,1.613-10.544,2.083-15.853L112.626,107.919L112.626,107.919z"/>
		<path d="M169.858,111.347c0,1.881-1.479,3.356-3.359,3.356c-1.884,0-3.359-1.476-3.359-3.356s1.475-3.362,3.359-3.362
			C168.379,107.984,169.858,109.466,169.858,111.347z M168.983,145.736c0,4.434,0.066,5.309,0.203,8.129
			c-1.41-0.202-2.018-0.268-2.89-0.268c-1.21,0-1.681,0.065-2.955,0.268c0.334-2.284,0.334-2.684,0.403-8.129l0.134-7.521
			l-0.066-7.457c0-5.105-0.067-5.712-0.337-8.194c1.277,0.132,1.813,0.202,2.821,0.202c0.872,0,1.41,0,3.359-0.202
			c-0.335,2.821-0.405,3.695-0.47,8.396C169.05,137.542,168.983,140.03,168.983,145.736z"/>
		<path d="M180.267,138.28c0-8.866,3.493-13.634,9.942-13.634c5.443,0,9.001,5.106,9.001,12.759c0,9.004-3.829,14.717-9.738,14.717
			C181.813,152.122,180.267,144.326,180.267,138.28z M199.146,153.865c1.341-0.202,1.812-0.268,2.415-0.268
			c0.941,0,1.346,0.065,2.489,0.268l-0.069-1.076c-0.067-4.903-0.134-9.808-0.134-14.711l0.066-9.135l0.137-8.462l0.199-7.993
			c0.134-5.105,0.134-5.646,0.336-8.063c-1.343,0.203-1.881,0.203-2.753,0.203c-1.076,0-1.612,0-2.888-0.203
			c0,5.91,0.268,11.89,0.268,17.799c0,2.083-0.065,4.101-0.065,6.184c-2.488-4.434-5.778-6.451-10.345-6.451
			c-8.6,0-14.378,6.653-14.378,16.525c0,10.075,5.174,16.056,13.838,16.056c5.645,0,7.928-2.755,10.95-6.986L199.146,153.865z"/>
		<path d="M221.111,146.611c3.627-7.659,5.775-15.99,8.396-24.048c0.94,0.132,1.342,0.202,2.083,0.202c0.872,0,1.207,0,2.216-0.202
			c2.283,7.992,5.038,15.782,7.927,23.577c0,0,0.065,0.203,0.2,0.471h0.336c0.673-2.285,1.746-4.434,2.687-6.581l2.352-6.386
			c1.344-3.695,2.686-7.386,4.165-11.081c0.604,0.065,1.276,0.202,1.88,0.202c0.741,0,1.479-0.202,2.218-0.202
			c-2.821,5.106-6.314,12.628-8.263,18.204l-2.554,6.248c-1.678,4.231-1.812,4.637-2.484,6.85c-0.604-0.202-0.807-0.268-1.41-0.268
			c-1.075,0-1.343,0.065-1.948,0.268c-2.083-8.063-5.172-16.525-8.329-24.249h-0.336c-0.203,0.333-0.269,0.47-0.269,0.535
			c-2.083,4.57-6.92,18.543-8.465,23.714c-0.939-0.202-1.276-0.268-1.812-0.268c-0.471,0-0.741,0.065-1.748,0.268
			c-2.487-8.331-5.375-16.591-8.801-24.654c-1.276-2.952-2.083-4.903-2.419-5.975c-0.065-0.071-0.134-0.268-0.268-0.673
			c1.544,0.202,1.949,0.202,3.091,0.202c1.006,0,2.015-0.137,3.021-0.202c1.344,5.778,5.709,18.608,8.263,24.048L221.111,146.611
			L221.111,146.611z"/>
		<path d="M278.614,135.46c-0.404,0.065-0.672,0.065-0.741,0.065c-2.688,0.273-5.373,0.137-8.06,0.202
			c-2.955-0.065-5.91,0-8.867-0.132c0.404-6.92,4.097-11.288,9.472-11.288C277,124.308,278.277,130.288,278.614,135.46z
			 M282.776,147.618l-0.401-0.132c-2.755,3.022-6.314,4.636-10.212,4.636c-7.12,0-11.352-4.838-11.352-13.033
			c0-0.137,0.069-0.404,0.069-0.874l0.871-0.065c4.301-0.137,7.457-0.137,11.152-0.137c5.91,0,8.531,0,10.95,0.202
			c0.064-0.94,0.064-1.345,0.064-1.946c0-8.938-4.834-14.044-13.434-14.044c-9.471,0-15.383,6.184-15.383,16.056
			c0,10.349,5.844,16.46,15.784,16.46c4.299,0,7.794-1.41,11.354-3.761L282.776,147.618z"/>
		<path d="M303.399,128.069c-1.544-3.023-3.291-4.231-6.18-4.231c-3.089,0-5.508,2.351-5.508,5.51
			c0,8.933,15.651,3.56,15.651,14.241c0,6.516-4.903,10.884-12.292,10.884c-2.889,0-6.046-0.875-8.197-2.22
			c0.538-1.273,0.942-2.684,1.413-4.767h0.536c2.015,3.154,4.502,4.636,7.591,4.636c3.897,0,6.584-2.422,6.584-5.981
			c0-8.396-15.787-3.225-15.787-15.181c0-5.373,4.635-9.205,10.948-9.205c2.958,0,5.442,0.541,7.393,1.749
			c-0.674,1.346-1.548,3.023-1.548,4.565L303.399,128.069L303.399,128.069z"/>
		<path d="M318.583,113.828c0,0.339,0.068,0.471,0.068,0.541c0,2.952-0.538,5.91-0.538,8.867l7.254-0.137
			c-0.203,0.809-0.268,1.006-0.268,1.345c0,0.405,0.064,0.602,0.268,1.273h-7.187c-0.067,1.684-0.067,2.018-0.137,5.576v11.151
			c0,7.659,1.144,9.944,5.041,9.944c1.209,0,1.678-0.071,3.089-0.541v1.547c-2.217,0.737-4.166,1.143-5.641,1.143
			c-4.839,0-7.728-3.159-7.728-8.397c0-5.712,0.469-11.419,0.469-17.132c0-1.881,0-2.077-0.134-3.291c-1.41,0-2.886,0-4.299,0.137
			c0.203-0.535,0.203-0.809,0.203-1.278c0-0.471,0-0.738-0.203-1.34h4.433v-0.404c0-2.285-0.134-4.57-0.401-6.851L318.583,113.828z"
			/>
	</g>
	<g>
		<path d="M38.425,199.364c-3.695,2.554-8.933,4.029-14.307,4.029C9.137,203.394,0,194.598,0,180.221
			c0-14.776,9.81-23.846,25.663-23.846c5.038,0,10.075,1.006,13.771,2.749c-0.604,1.613-1.142,3.696-1.342,5.106l-0.47,0.137
			c-3.225-3.356-7.861-5.374-12.092-5.374c-11.756,0-18.742,7.79-18.742,21.161c0,12.557,6.918,20.621,17.665,20.621
			c5.442,0,10.078-1.815,14.58-5.576l0.333,0.201L38.425,199.364z"/>
		<path d="M48.167,186.6c0.268-8.932,4.296-14.038,10.949-14.038c5.708,0,9.537,5.439,9.537,13.567
			c0,9.004-4.163,14.848-10.614,14.848c-5.844,0-9.941-5.576-9.941-13.568C48.097,187.141,48.167,186.867,48.167,186.6z
			 M42.322,186.6c0,9.944,6.177,16.46,15.582,16.46c9.673,0,16.594-6.783,16.594-16.323c0-9.872-6.046-16.258-15.383-16.258
			C49.038,170.479,42.322,176.93,42.322,186.6z"/>
		<path d="M81.953,171.354c1.342,0,1.949-0.065,3.091-0.202c-0.339,1.881-0.339,3.897-0.339,5.778
			c2.421-4.303,5.712-6.184,10.348-6.184c4.767,0,8.194,2.286,9.468,6.517c2.219-4.297,5.845-6.445,11.019-6.445
			c6.045,0,9.738,3.559,9.738,9.469c0,4.772-0.268,9.539-0.268,14.312c0,3.826,0,5.707,0.137,7.855
			c-1.143-0.203-1.613-0.268-2.824-0.268c-1.208,0-1.678,0.064-2.889,0.268c0.338-2.619,0.606-9.068,0.672-13.901v-5.106
			c0-6.718-2.149-9.604-7.12-9.604c-4.502,0-7.323,2.82-7.794,7.79c-0.268,2.684-0.401,5.98-0.401,11.152
			c0,4.095,0.069,6.581,0.337,9.67c-1.143-0.203-1.479-0.268-2.89-0.268c-1.142,0-1.612,0.064-2.82,0.268
			c0.604-4.767,0.604-9.807,0.604-14.646c0-9.872-0.335-11.419-3.226-12.961c-1.141-0.607-2.415-0.875-3.826-0.875
			c-7.525,0-8.129,6.719-8.197,12.562l-0.135,5.309c0.066,3.357-0.065,6.718,0.203,10.01c0,0.066,0,0.268,0.065,0.602
			c-1.074-0.203-1.41-0.268-2.684-0.268c-1.482,0-1.75,0.064-2.824,0.268c0.471-5.106,0.673-10.277,0.673-15.449
			c0-5.04-0.068-10.009-0.202-15.05l-0.068-0.803C80.741,171.354,81.012,171.354,81.953,171.354z"/>
		<path d="M134.282,171.354c1.341,0,1.946-0.065,3.088-0.202c-0.336,1.881-0.336,3.897-0.336,5.778
			c2.419-4.303,5.709-6.184,10.345-6.184c4.77,0,8.195,2.286,9.47,6.517c2.218-4.297,5.848-6.445,11.019-6.445
			c6.046,0,9.738,3.559,9.738,9.469c0,4.772-0.268,9.539-0.268,14.312c0,3.826,0,5.707,0.134,7.855
			c-1.143-0.203-1.612-0.268-2.821-0.268c-1.208,0-1.678,0.064-2.888,0.268c0.335-2.619,0.604-9.068,0.672-13.901v-5.106
			c0-6.718-2.151-9.604-7.12-9.604c-4.502,0-7.323,2.82-7.792,7.79c-0.271,2.684-0.403,5.98-0.403,11.152
			c0,4.095,0.066,6.581,0.333,9.67c-1.143-0.203-1.475-0.268-2.886-0.268c-1.143,0-1.613,0.064-2.821,0.268
			c0.602-4.767,0.602-9.807,0.602-14.646c0-9.872-0.334-11.419-3.223-12.961c-1.143-0.607-2.419-0.875-3.83-0.875
			c-7.521,0-8.129,6.719-8.195,12.562l-0.137,5.309c0.069,3.357-0.065,6.718,0.203,10.01c0,0.066,0,0.268,0.069,0.602
			c-1.075-0.203-1.41-0.268-2.687-0.268c-1.479,0-1.747,0.064-2.821,0.268c0.469-5.106,0.672-10.277,0.672-15.449
			c0-5.04-0.067-10.009-0.203-15.05l-0.068-0.803C133.07,171.354,133.341,171.354,134.282,171.354z"/>
		<path d="M210.456,187.677c0,7.319,0.066,11.89,0.269,14.776c-0.808-0.268-1.009-0.268-1.748-0.268
			c-1.009,0-2.083,0.064-3.493,0.268c0.203-1.613,0.203-3.226,0.203-4.833c0-0.137,0-0.273,0.065-0.469l-0.268-0.137
			c-2.216,3.962-6.046,6.247-10.545,6.247c-6.783,0-10.814-4.231-10.814-11.354c0-4.969,0.199-9.944,0.199-14.913
			c0-3.826,0-4.095-0.268-5.844c1.143,0.202,1.547,0.268,2.821,0.268c1.009,0,1.612-0.065,3.022-0.268
			c-0.268,1.814-0.333,2.416-0.402,4.767c-0.134,4.034-0.271,7.998-0.271,12.026c0,5.909,0.607,11.825,8.129,11.825
			c6.719,0,8.197-6.113,8.197-11.558l0.066-5.975l-0.066-5.308c-0.068-3.428-0.068-3.897-0.335-5.778
			c1.277,0.202,1.746,0.268,2.821,0.268c1.073,0,1.678-0.065,3.091-0.268C210.658,175.316,210.456,180.018,210.456,187.677z"/>
		<path d="M220.799,171.354c1.008,0,1.413,0,2.354-0.202c0,1.679-0.203,3.356-0.203,5.04c0,0.197,0,0.47,0.066,0.869
			c2.889-4.499,5.912-6.314,10.681-6.314c6.918,0,10.816,4.035,10.816,11.152c0,3.762-0.269,7.522-0.269,11.289
			c0,3.089,0.066,6.177,0.066,9.266c-1.276-0.203-1.747-0.268-2.821-0.268c-0.806,0-1.41,0.064-2.82,0.268
			c0.337-3.56,0.669-11.152,0.669-16.924c0-5.375-0.669-11.492-7.655-11.492c-7.792,0-8.6,6.184-8.667,12.496
			c0,3.024-0.066,5.981-0.066,9.004c0,2.28,0.203,4.631,0.203,6.916c-1.144-0.203-1.613-0.268-2.688-0.268
			c-1.076,0-1.612,0.064-2.889,0.268c0.335-3.023,0.402-4.166,0.469-8.195c0.134-3.356,0.203-8.057,0.203-12.425
			c0-3.559,0-7.123-0.271-10.682C219.189,171.288,219.793,171.354,220.799,171.354z"/>
		<path d="M257.275,159.934c0,1.881-1.479,3.356-3.359,3.356s-3.359-1.476-3.359-3.356s1.479-3.356,3.359-3.356
			S257.275,158.054,257.275,159.934z M256.4,194.324c0,4.434,0.068,5.309,0.203,8.129c-1.411-0.203-2.016-0.268-2.889-0.268
			c-1.209,0-1.68,0.064-2.955,0.268c0.335-2.285,0.335-2.684,0.401-8.129l0.137-7.522l-0.069-7.456c0-5.106-0.067-5.707-0.335-8.194
			c1.276,0.137,1.814,0.202,2.821,0.202c0.873,0,1.408,0,3.358-0.202c-0.336,2.82-0.402,3.695-0.47,8.396
			C256.468,186.129,256.4,188.616,256.4,194.324z"/>
		<path d="M288.038,177.668h-0.669c-1.411-2.756-4.771-4.904-7.793-4.904c-7.188,0-11.89,5.439-11.89,13.633
			c0,8.469,4.969,14.379,12.158,14.379c3.561,0,6.381-1.209,9.202-4.101l0.538,0.137l-0.201,2.958
			c-2.955,2.416-6.517,3.558-10.882,3.558c-10.212,0-16.66-6.379-16.66-16.525c0-9.741,6.988-16.121,17.532-16.121
			c4.031,0,6.65,0.673,10.077,2.619L288.038,177.668z"/>
		<path d="M311.011,185.998c0,3.292-0.198,6.517-0.198,9.808c-1.748,2.754-4.839,4.565-7.794,4.565
			c-3.627,0-5.978-2.483-5.978-6.244c0-4.237,1.476-5.373,9.2-7.057C307.855,186.67,309.402,186.266,311.011,185.998z
			 M294.554,177.87h0.673c1.544-2.958,4.7-4.701,8.329-4.701c4.569,0,7.455,3.153,7.455,8.058c0,0.606-0.064,1.011-0.198,2.017
			c-6.25,4.368-19.213,0.47-19.213,11.824c0,5.171,3.493,8.123,9.405,8.123c3.49,0,6.983-1.679,9.808-4.767
			c0.335,2.756,1.812,4.029,4.7,4.029c1.276,0,2.484-0.334,4.231-1.006v-1.345c-0.669,0.136-0.872,0.202-1.276,0.202
			c-2.417,0-2.752-0.875-2.752-8.331c0-3.695,0.335-7.386,0.335-11.081c0-6.582-3.962-10.414-10.884-10.414
			c-3.964,0-7.388,1.547-10.613,3.695L294.554,177.87L294.554,177.87z"/>
		<path d="M330.695,162.421c0,0.334,0.067,0.47,0.067,0.536c0,2.957-0.538,5.909-0.538,8.866l7.254-0.137
			c-0.199,0.81-0.268,1.012-0.268,1.346c0,0.404,0.068,0.606,0.268,1.278h-7.187c-0.067,1.678-0.067,2.012-0.137,5.57v11.152
			c0,7.659,1.143,9.943,5.04,9.943c1.209,0,1.679-0.064,3.089-0.535v1.541c-2.216,0.738-4.165,1.143-5.641,1.143
			c-4.839,0-7.725-3.154-7.725-8.396c0-5.706,0.47-11.42,0.47-17.127c0-1.881,0-2.083-0.136-3.291c-1.41,0-2.887,0-4.298,0.132
			c0.2-0.536,0.2-0.804,0.2-1.273c0-0.471,0-0.744-0.2-1.346h4.434v-0.404c0-2.285-0.136-4.564-0.404-6.85L330.695,162.421z"/>
		<path d="M346.546,159.934c0,1.881-1.478,3.356-3.359,3.356c-1.879,0-3.358-1.476-3.358-3.356s1.479-3.356,3.358-3.356
			C345.069,156.577,346.546,158.054,346.546,159.934z M345.673,194.324c0,4.434,0.067,5.309,0.201,8.129
			c-1.41-0.203-2.014-0.268-2.889-0.268c-1.209,0-1.678,0.064-2.955,0.268c0.336-2.285,0.336-2.684,0.402-8.129l0.134-7.522
			l-0.065-7.456c0-5.106-0.068-5.707-0.337-8.194c1.277,0.137,1.815,0.202,2.821,0.202c0.875,0,1.41,0,3.359-0.202
			c-0.337,2.82-0.401,3.695-0.471,8.396C345.741,186.129,345.673,188.616,345.673,194.324z"/>
		<path d="M356.889,186.6c0.27-8.932,4.301-14.038,10.95-14.038c5.711,0,9.539,5.439,9.539,13.567
			c0,9.004-4.165,14.848-10.613,14.848c-5.843,0-9.94-5.576-9.94-13.568C356.825,187.141,356.889,186.867,356.889,186.6z
			 M351.046,186.6c0,9.944,6.18,16.46,15.585,16.46c9.674,0,16.591-6.783,16.591-16.323c0-9.872-6.045-16.258-15.383-16.258
			C357.764,170.479,351.046,176.93,351.046,186.6z"/>
		<path d="M391.348,171.354c1.009,0,1.41,0,2.354-0.202c0,1.679-0.203,3.356-0.203,5.04c0,0.197,0,0.47,0.066,0.869
			c2.889-4.499,5.911-6.314,10.681-6.314c6.919,0,10.816,4.035,10.816,11.152c0,3.762-0.271,7.522-0.271,11.289
			c0,3.089,0.067,6.177,0.067,9.266c-1.275-0.203-1.745-0.268-2.819-0.268c-0.808,0-1.41,0.064-2.821,0.268
			c0.336-3.56,0.67-11.152,0.67-16.924c0-5.375-0.67-11.492-7.655-11.492c-7.794,0-8.6,6.184-8.668,12.496
			c0,3.024-0.066,5.981-0.066,9.004c0,2.28,0.203,4.631,0.203,6.916c-1.143-0.203-1.613-0.268-2.687-0.268
			c-1.078,0-1.614,0.064-2.891,0.268c0.337-3.023,0.403-4.166,0.471-8.195c0.134-3.356,0.203-8.057,0.203-12.425
			c0-3.559,0-7.123-0.271-10.682C389.739,171.288,390.343,171.354,391.348,171.354z"/>
		<path d="M436.49,176.661c-1.545-3.022-3.292-4.236-6.181-4.236c-3.089,0-5.508,2.356-5.508,5.511
			c0,8.932,15.652,3.559,15.652,14.24c0,6.517-4.904,10.884-12.293,10.884c-2.889,0-6.045-0.874-8.197-2.22
			c0.539-1.273,0.94-2.685,1.414-4.767h0.535c2.015,3.154,4.502,4.636,7.591,4.636c3.897,0,6.584-2.422,6.584-5.98
			c0-8.396-15.787-3.226-15.787-15.181c0-5.374,4.635-9.2,10.949-9.2c2.957,0,5.441,0.535,7.392,1.743
			c-0.674,1.346-1.547,3.023-1.547,4.57L436.49,176.661L436.49,176.661z"/>
	</g>
</g>
<linearGradient id="SVGID_2_" gradientUnits="userSpaceOnUse" x1="314.056" y1="489.913" x2="314.056" y2="489.913" gradientTransform="matrix(1 0 0 1 0 -455.7839)">
	<stop  offset="0" style="stop-color:#00539F"/>
	<stop  offset="1" style="stop-color:#C4CBE5"/>
</linearGradient>
<path class="st1" d="M314.056,34.129"/>
<linearGradient id="SVGID_3_" gradientUnits="userSpaceOnUse" x1="29.828" y1="147.7549" x2="343.797" y2="147.7549" gradientTransform="matrix(1 0 0 -1 0 220)">
	<stop  offset="0" style="stop-color:#DBDFFF"/>
	<stop  offset="1" style="stop-color:#2141FF"/>
</linearGradient>
<path class="st2" d="M304.641,27.652l30.786-6.997l8.37-20.624C133.387-2.452,29.828,144.49,29.828,144.49
	C181.844,32.75,300.732,68.33,325.396,71.269l2.335-24.256L304.641,27.652z"/>
<g>
	<path class="st3" d="M333.489,45.805l-17.988-15.366l23.143-4.929c0,0,6.232-15.048,9.058-21.863l11.838,20.492
		c0,0,16.236,1.278,23.589,1.857L367.3,43.586l5.525,23.011l-21.623-9.612l-20.18,12.359
		C331.792,62.005,333.489,45.805,333.489,45.805z"/>
	<path class="st4" d="M347.916,6.927c3.958,6.851,9.981,17.276,9.981,17.276l0.765,1.325l1.525,0.12c0,0,12.001,0.945,19.888,1.566
		c-5.291,5.881-13.345,14.83-13.345,14.83l-1.024,1.137l0.357,1.488c0,0,2.812,11.708,4.659,19.401l-18.231-8.104l-1.397-0.621
		l-1.304,0.799l-17.014,10.42c0.825-7.87,2.08-19.846,2.08-19.846l0.159-1.521l-1.163-0.994l-15.165-12.955l18.796-4.002
		l0.718-0.154l1.494-0.32l0.585-1.411C340.279,25.36,344.887,14.237,347.916,6.927 M347.486,0.367
		c-1.753,4.227-9.894,23.88-9.894,23.88l-0.718,0.154c0,0-20.085,4.276-24.559,5.229c3.479,2.973,19.648,16.784,19.648,16.784
		s-2.217,21.159-2.695,25.709c3.902-2.389,22.042-13.499,22.042-13.499s19.438,8.641,23.618,10.499
		c-1.067-4.447-6.034-25.133-6.034-25.133s14.23-15.812,17.287-19.212c-4.559-0.361-25.764-2.03-25.764-2.03
		S349.773,4.328,347.486,0.367L347.486,0.367z"/>
</g>
<rect x="1.93" y="210.358" class="st4" width="436.594" height="8.526"/>
</svg>
