<?xml version="1.0" standalone="no"?>
<!DOCTYPE svg PUBLIC "-//W3C//DTD SVG 20010904//EN"
 "http://www.w3.org/TR/2001/REC-SVG-20010904/DTD/svg10.dtd">
<svg version="1.0" xmlns="http://www.w3.org/2000/svg"
 width="700.000000pt" height="700.000000pt" viewBox="0 0 700.000000 700.000000"
 preserveAspectRatio="xMidYMid meet">
<metadata>
Created by potrace 1.11, written by Peter Selinger 2001-2013
</metadata>
<g transform="translate(0.000000,700.000000) scale(0.100000,-0.100000)"
fill="#000000" stroke="none">
<path d="M1080 6920 c-41 -45 -82 -89 -90 -98 -89 -95 -245 -302 -343 -453
-249 -384 -426 -793 -534 -1234 -18 -75 -19 -77 -44 -209 -22 -116 -26 -141
-35 -221 -3 -27 -7 -60 -9 -73 -19 -114 -26 -557 -13 -752 16 -227 71 -540
133 -755 135 -471 304 -825 606 -1265 91 -132 382 -470 405 -470 9 0 28 20
153 161 112 125 361 452 361 474 0 2 13 23 29 47 45 67 148 251 206 370 163
330 298 756 350 1103 2 11 6 34 9 50 3 17 8 53 11 80 3 28 7 60 9 72 25 126
26 738 2 870 -2 10 -7 45 -10 78 -6 53 -17 123 -32 205 -2 14 -7 41 -10 60 -7
42 -61 273 -74 315 -110 355 -239 662 -373 888 -26 43 -47 81 -47 83 0 11
-168 257 -247 361 -80 107 -194 240 -293 346 l-46 48 -74 -81z"/>
<path d="M6167 6404 c-1 -1 -40 -4 -87 -7 -92 -7 -215 -22 -295 -37 -27 -5
-63 -12 -79 -14 -16 -3 -52 -10 -80 -16 -28 -6 -60 -12 -71 -14 -11 -3 -39 -9
-62 -15 -24 -6 -62 -16 -85 -21 -283 -70 -666 -228 -960 -396 -145 -84 -396
-253 -483 -325 -417 -349 -672 -635 -920 -1029 -231 -366 -449 -904 -510
-1259 -3 -19 -8 -37 -10 -41 -5 -8 -41 -228 -50 -305 -4 -32 -8 -66 -10 -75
-6 -32 -16 -189 -20 -297 l-3 -111 106 3 c216 7 375 24 582 62 111 20 121 22
145 28 11 2 47 11 80 18 134 31 356 99 467 143 35 14 68 27 75 28 7 1 16 5 19
9 4 4 16 7 26 7 10 0 18 4 18 9 0 5 12 12 27 15 14 4 82 34 150 66 989 471
1753 1344 2086 2385 37 117 93 336 113 440 16 92 20 111 28 155 6 29 12 74 21
150 13 112 15 138 20 260 4 69 8 140 9 158 l3 33 -123 -2 c-68 -1 -125 -3
-127 -5z"/>
<path d="M3988 2305 c-2 -1 -48 -6 -103 -10 -55 -3 -113 -8 -130 -11 -16 -2
-50 -6 -75 -9 -185 -22 -391 -65 -604 -126 -537 -155 -1034 -422 -1465 -787
-101 -86 -221 -199 -221 -209 0 -9 114 -115 225 -209 450 -381 988 -662 1550
-809 128 -34 337 -78 425 -90 52 -7 175 -22 240 -31 25 -3 164 -6 310 -8 289
-3 470 9 715 50 552 92 1087 305 1553 618 198 133 326 234 510 404 l83 76 -68
64 c-242 227 -506 420 -810 593 -50 29 -250 129 -256 129 -3 0 -39 15 -79 34
-155 73 -507 193 -648 221 -8 2 -44 10 -80 18 -36 8 -82 18 -102 21 -21 3 -57
10 -80 15 -24 6 -65 13 -93 16 -27 3 -63 8 -80 10 -16 2 -50 6 -75 9 -109 14
-189 18 -407 21 -128 1 -233 1 -235 0z"/>
</g>
</svg>
